<svg xmlns="http://www.w3.org/2000/svg" width="285.503" height="65.999" viewBox="0 0 285.503 65.999">
  <g id="Group_23" data-name="Group 23" transform="translate(0)">
    <g id="Group_20" data-name="Group 20" transform="translate(0 0.091)">
      <path id="Path_22" data-name="Path 22" d="M307.014,833.17a1.1,1.1,0,0,0-1.094-.547h-6.381a2.133,2.133,0,0,0-2.005,1.459l-10.574,22.243-3.282-22.061q-.274-1.64-1.641-1.641h-6.381a1.42,1.42,0,0,0-1.276.547,1.749,1.749,0,0,0-.364,1.641l5.652,36.1-4.193,25.16a1.658,1.658,0,0,0,.182,1.458c.182.365.547.365,1.094.365h6.2c1.094,0,1.641-.73,2.005-2.005l4.193-24.978,17.685-35.917A1.7,1.7,0,0,0,307.014,833.17Z" transform="translate(-273.942 -832.622)" fill="#ededed"/>
      <path id="Path_23" data-name="Path 23" d="M460.307,844.655c.73-4.376.182-7.475-1.458-9.663-1.276-1.641-3.464-2.37-6.2-2.37h-7.293c-6.2,0-10.21,4.194-11.486,12.033l-6.928,41.387c-.729,4.376-.182,7.475,1.458,9.481a7.828,7.828,0,0,0,6.2,2.552h7.293c6.2,0,10.21-4.193,11.486-12.033Zm-9.3,2.006-6.2,37.376c-.365,2.005-1.276,2.917-2.735,2.917h-3.646a1.794,1.794,0,0,1-1.459-.547,3.133,3.133,0,0,1-.365-2.37l6.2-37.193c.182-1.276.912-2.917,2.735-2.917h3.646a2.072,2.072,0,0,1,1.458.547A2.67,2.67,0,0,1,451.009,846.661Z" transform="translate(-396.607 -832.622)" fill="#ededed"/>
      <path id="Path_24" data-name="Path 24" d="M630.161,854.714a1.5,1.5,0,0,0,.182,1.277,1.4,1.4,0,0,0,.912.365h6.382q1.367,0,1.641-1.641l1.458-8.386c.729-4.376.183-7.476-1.458-9.481-1.277-1.641-3.464-2.37-6.2-2.37h-8.569c-6.2,0-10.21,4.193-11.669,12.033L605.913,887.9c-.73,4.375-.182,7.475,1.458,9.48a9.957,9.957,0,0,0,6.381,2.188h8.569c6.2,0,10.21-4.193,11.486-12.033l3.829-22.425a1.5,1.5,0,0,0-.183-1.276,1.391,1.391,0,0,0-.912-.365H625.785q-1.367,0-1.641,1.641l-1.276,8.022a1.341,1.341,0,0,0-.073.523,1.2,1.2,0,0,0,1.045,1.111,1.154,1.154,0,0,0,.121.007h2.917l-1.824,10.392c-.365,2.005-1.276,2.917-2.735,2.917h-4.74a1.8,1.8,0,0,1-1.459-.547,3.133,3.133,0,0,1-.365-2.37l6.381-36.646c.365-2.005,1.276-2.917,2.735-2.917h4.558a2.07,2.07,0,0,1,1.459.547,3.133,3.133,0,0,1,.365,2.37Z" transform="translate(-540.389 -834.113)" fill="#ededed"/>
      <path id="Path_25" data-name="Path 25" d="M811.945,898.455a1.655,1.655,0,0,0,.547-1.276l-.365-62.171c0-1.276-.729-1.458-1.276-1.458h-8.933c-.547,0-1.276.182-1.641,1.458L779.128,897a2,2,0,0,0,0,1.458,1.07,1.07,0,0,0,.912.365h6.928c.547,0,1.094-.182,1.641-1.458l3.646-11.486h10.939l-.182,11.486c0,1.093.547,1.458,1.094,1.458h6.746A2.581,2.581,0,0,0,811.945,898.455Zm-8.933-22.607h-7.475l8.022-25.525Z" transform="translate(-679.693 -833.368)" fill="#ededed"/>
    </g>
    <g id="Group_21" data-name="Group 21" transform="translate(145.02)">
      <path id="Path_26" data-name="Path 26" d="M1555.868,834.559a1.229,1.229,0,0,0-1.093-.547h-6.381a1.971,1.971,0,0,0-2.006,1.276l-8.751,18.232-2.552-18.05a1.6,1.6,0,0,0-1.642-1.458h-6.381a1.669,1.669,0,0,0-1.277.547,1.993,1.993,0,0,0-.365,1.823l4.74,29.354-15.315,30.994c-.365.729-.547,1.458-.182,1.823a1.231,1.231,0,0,0,1.095.547h6.563a1.972,1.972,0,0,0,2.005-1.276l8.933-18.6,2.734,18.6a1.6,1.6,0,0,0,1.642,1.459h6.563a1.669,1.669,0,0,0,1.276-.547,2,2,0,0,0,.364-1.823l-4.922-30.995,14.767-29.535C1556.051,835.653,1556.233,834.924,1555.868,834.559Z" transform="translate(-1415.584 -833.648)" fill="#ededed"/>
      <path id="Path_27" data-name="Path 27" d="M1040.061,832.7a1.421,1.421,0,0,0-1.277-.547h-16.591a.892.892,0,0,0-.911.911l-9.664,37.193a.88.88,0,0,0,0,.729.565.565,0,0,0,.365.182l7.475-.547-.182,1.459-4.011,24.43c0,.547-.181,1.094.182,1.459a.636.636,0,0,0,.365.182.671.671,0,0,0,.548-.182c1.093-1.094,18.961-37.74,18.961-37.74a.254.254,0,0,0,0-.365c0-.182-.365-.182-.365-.182l-7.111.547,12.216-25.89C1040.426,833.435,1040.243,832.887,1040.061,832.7Z" transform="translate(-1011.538 -832.158)" fill="#ededed"/>
      <path id="Path_28" data-name="Path 28" d="M1197.773,858.959l2.552-14.95c.729-4.376.183-7.475-1.458-9.481-1.277-1.641-3.465-2.37-6.2-2.37h-15.5q-1.369,0-1.641,1.641l-10.21,61.988a1.144,1.144,0,0,0-.182,1.459,1.391,1.391,0,0,0,.911.365h15.5c6.2,0,10.391-4.194,11.667-12.034l2.552-14.95c.365-2.734-.547-4.922-2.552-5.834A8,8,0,0,0,1197.773,858.959Zm-11.851,14.585-1.641,9.846c-.364,2.005-1.276,2.917-2.734,2.917h-5.47l2.552-15.68h5.469a1.8,1.8,0,0,1,1.459.547A2.96,2.96,0,0,1,1185.922,873.544Zm4.375-26.983-1.64,9.845c-.182,1.276-.729,2.917-2.735,2.917h-5.469L1183,843.644h5.47a1.792,1.792,0,0,1,1.458.547C1190.48,844.556,1190.48,845.467,1190.3,846.561Z" transform="translate(-1134.792 -832.158)" fill="#ededed"/>
      <path id="Path_29" data-name="Path 29" d="M1358.816,897.61h7.111c6.2,0,10.209-4.193,11.485-12.033l6.929-41.386c.729-4.375.182-7.475-1.459-9.663-1.275-1.641-3.463-2.37-6.2-2.37h-7.293c-6.2,0-10.209,4.193-11.486,12.033l-6.929,41.386c-.729,4.376-.183,7.475,1.458,9.663A9.139,9.139,0,0,0,1358.816,897.61Zm2.005-14.039,6.2-37.375c.183-1.276.912-2.917,2.735-2.917h3.646a2.071,2.071,0,0,1,1.458.547,3.131,3.131,0,0,1,.365,2.37l-6.2,37.375c-.364,2.006-1.276,2.917-2.735,2.917h-3.645a1.793,1.793,0,0,1-1.459-.547A3.133,3.133,0,0,1,1360.821,883.572Z" transform="translate(-1283.984 -832.158)" fill="#ededed"/>
    </g>
  </g>
</svg>
