<svg xmlns="http://www.w3.org/2000/svg" width="151.169" height="149.745" viewBox="0 0 151.169 149.745">
  <g id="Group_34" data-name="Group 34" transform="translate(-206.192 -208.235)">
    <path id="Path_30" data-name="Path 30" d="M248.481,208.809a1.159,1.159,0,0,0-1.15-.574h-6.7a2.238,2.238,0,0,0-2.106,1.532l-11.107,23.362-3.446-23.171q-.288-1.725-1.724-1.724h-6.7a1.491,1.491,0,0,0-1.34.574,1.839,1.839,0,0,0-.384,1.724l5.936,37.916-4.4,26.425a1.74,1.74,0,0,0,.192,1.532c.192.384.574.384,1.148.384H223.2c1.148,0,1.724-.766,2.106-2.108l4.4-26.233,18.575-37.724A1.79,1.79,0,0,0,248.481,208.809Z" transform="translate(4.135)" fill="#ffbc6a"/>
    <path id="Path_31" data-name="Path 31" d="M316.793,261.032a1.292,1.292,0,0,0-1.148-.574h-6.7a2.071,2.071,0,0,0-2.106,1.34l-9.192,19.149-2.68-18.957a1.677,1.677,0,0,0-1.724-1.532h-6.7a1.753,1.753,0,0,0-1.342.574,2.092,2.092,0,0,0-.382,1.914l4.978,30.83L273.707,326.33c-.382.766-.574,1.532-.19,1.914a1.291,1.291,0,0,0,1.148.574h6.894a2.069,2.069,0,0,0,2.106-1.34l9.383-19.531,2.872,19.531a1.677,1.677,0,0,0,1.724,1.532h6.894a1.746,1.746,0,0,0,1.34-.574,2.092,2.092,0,0,0,.384-1.916l-5.17-32.552L316.6,262.946C316.985,262.18,317.176,261.414,316.793,261.032Z" transform="translate(36.738 28.586)" fill="#ffbc6a"/>
    <path id="Path_32" data-name="Path 32" d="M236.148,260.784a1.491,1.491,0,0,0-1.34-.574H217.383a.938.938,0,0,0-.958.958l-10.148,39.064a.922.922,0,0,0,0,.766.589.589,0,0,0,.382.192l7.851-.576-.192,1.532-4.214,25.66c0,.574-.19,1.148.192,1.532a.67.67,0,0,0,.384.192.7.7,0,0,0,.574-.192c1.148-1.15,19.915-39.638,19.915-39.638a.266.266,0,0,0,0-.384c0-.192-.384-.192-.384-.192l-7.468.576,12.829-27.192C236.532,261.55,236.34,260.976,236.148,260.784Z" transform="translate(0 28.45)" fill="#ffbc6a"/>
    <path id="Path_33" data-name="Path 33" d="M269.5,220.874c.766-4.6.192-7.851-1.532-10.149-1.34-1.724-3.638-2.49-6.511-2.49h-7.66c-6.51,0-10.723,4.4-12.063,12.639l-7.276,43.468c-.766,4.6-.192,7.851,1.532,9.957a8.218,8.218,0,0,0,6.51,2.68h7.66c6.511,0,10.723-4.4,12.063-12.638Zm-9.766,2.106-6.511,39.256c-.382,2.106-1.34,3.064-2.872,3.064h-3.83a1.882,1.882,0,0,1-1.532-.576,3.288,3.288,0,0,1-.384-2.488l6.511-39.064c.192-1.342.958-3.064,2.872-3.064h3.83a2.17,2.17,0,0,1,1.532.574A2.8,2.8,0,0,1,259.732,222.98Z" transform="translate(15.289)" fill="#ffbc6a"/>
    <path id="Path_34" data-name="Path 34" d="M261.133,288.359l2.682-15.7c.766-4.6.19-7.851-1.532-9.957-1.342-1.724-3.64-2.49-6.511-2.49H239.494q-1.434,0-1.722,1.724L227.049,327.04a1.2,1.2,0,0,0-.192,1.532,1.461,1.461,0,0,0,.958.382H244.09c6.511,0,10.915-4.4,12.255-12.638l2.682-15.7c.382-2.872-.574-5.17-2.682-6.128A8.4,8.4,0,0,0,261.133,288.359Zm-12.447,15.319-1.722,10.341c-.384,2.106-1.342,3.064-2.874,3.064h-5.744l2.68-16.469h5.745a1.884,1.884,0,0,1,1.532.576A3.105,3.105,0,0,1,248.686,303.678Zm4.6-28.34-1.722,10.341c-.192,1.34-.766,3.064-2.874,3.064h-5.744l2.68-16.469h5.745a1.884,1.884,0,0,1,1.532.576C253.473,273.231,253.473,274.189,253.282,275.337Z" transform="translate(11.207 28.45)" fill="#ffbc6a"/>
    <path id="Path_35" data-name="Path 35" d="M283.807,229.738a1.57,1.57,0,0,0,.192,1.34,1.461,1.461,0,0,0,.958.384h6.7q1.437,0,1.724-1.724l1.532-8.809c.766-4.6.19-7.85-1.532-9.957-1.342-1.722-3.639-2.488-6.511-2.488h-9c-6.511,0-10.723,4.4-12.255,12.638l-7.277,43.468c-.766,4.6-.19,7.852,1.532,9.957a10.456,10.456,0,0,0,6.7,2.3h9c6.51,0,10.723-4.4,12.063-12.637l4.022-23.553a1.573,1.573,0,0,0-.192-1.342,1.468,1.468,0,0,0-.958-.382h-11.3q-1.437,0-1.724,1.724l-1.34,8.426a1.57,1.57,0,0,0,.192,1.34,1.46,1.46,0,0,0,.958.382h3.064l-1.916,10.915c-.382,2.106-1.34,3.064-2.872,3.064h-4.979a1.888,1.888,0,0,1-1.532-.574,3.292,3.292,0,0,1-.382-2.49l6.7-38.49c.384-2.106,1.34-3.064,2.872-3.064h4.788a2.171,2.171,0,0,1,1.532.576,3.288,3.288,0,0,1,.384,2.488Z" transform="translate(28.362 0.136)" fill="#ffbc6a"/>
    <path id="Path_36" data-name="Path 36" d="M315.758,276.529a1.742,1.742,0,0,0,.574-1.34l-.382-65.3c0-1.34-.766-1.532-1.342-1.532h-9.382c-.576,0-1.342.192-1.724,1.532L281.29,275a2.094,2.094,0,0,0,0,1.532,1.124,1.124,0,0,0,.958.382h7.276c.574,0,1.15-.19,1.724-1.532l3.83-12.063h11.489l-.192,12.063c0,1.15.574,1.532,1.15,1.532h7.084A2.718,2.718,0,0,0,315.758,276.529Zm-9.383-23.745h-7.851l8.426-26.808Z" transform="translate(41.029 0.068)" fill="#ffbc6a"/>
    <path id="Path_37" data-name="Path 37" d="M260.014,328.954h7.468c6.511,0,10.723-4.4,12.063-12.638l7.277-43.468c.766-4.6.192-7.851-1.532-10.149-1.34-1.724-3.638-2.49-6.511-2.49h-7.66c-6.51,0-10.723,4.4-12.064,12.639l-7.276,43.468c-.766,4.6-.192,7.851,1.532,10.149A9.593,9.593,0,0,0,260.014,328.954Zm2.106-14.744,6.511-39.256c.19-1.34.956-3.064,2.872-3.064h3.83a2.179,2.179,0,0,1,1.532.574,3.291,3.291,0,0,1,.382,2.49l-6.51,39.256c-.384,2.106-1.34,3.064-2.872,3.064h-3.83a1.882,1.882,0,0,1-1.532-.576A3.281,3.281,0,0,1,262.12,314.211Z" transform="translate(24.772 28.45)" fill="#ffbc6a"/>
  </g>
</svg>
