<?xml version="1.0" encoding="utf-8"?>
<!-- Generator: Adobe Illustrator 22.1.0, SVG Export Plug-In . SVG Version: 6.00 Build 0)  -->
<svg version="1.1" id="Layer_1" xmlns="http://www.w3.org/2000/svg" xmlns:xlink="http://www.w3.org/1999/xlink" x="0px" y="0px"
	 viewBox="0 0 132 149" style="enable-background:new 0 0 132 149;" xml:space="preserve">
<style type="text/css">
	.st0{display:none;}
	.st1{display:inline;}
	.st2{display:inline;fill:#FFFFFF;}
	.st3{fill:#FFFFFF;}
	.st4{fill:#222222;}
</style>
<g class="st0">
	<rect x="-0.2" class="st1" width="132.2" height="149"/>
</g>
<g id="Layer_3" class="st0">
	<rect x="-4.2" y="133.1" class="st2" width="142" height="15.9"/>
</g>
<g>
	<g>
		<path class="st3" d="M55.8,57.6h2c0.8,0,1.3-0.5,1.5-1.6l3.4-20.5c0.1-0.5,0-1-0.2-1.2S62,34,61.7,34h-2c-1,0-1.4,0.9-1.5,1.6
			L54.8,56c-0.1,0.6,0,1,0.2,1.3C55.2,57.5,55.4,57.6,55.8,57.6z"/>
		<polygon class="st3" points="100.9,37 96.5,51.1 100.6,51.1 		"/>
		<path class="st3" d="M75.9,75.9h-2c-1,0-1.4,0.9-1.5,1.6L69,98c-0.1,0.6,0,1,0.2,1.3c0.2,0.2,0.4,0.3,0.8,0.3h2
			c0.8,0,1.3-0.5,1.5-1.6l3.4-20.5c0.1-0.6,0-1-0.2-1.3C76.5,76,76.2,75.9,75.9,75.9z"/>
		<path class="st3" d="M56.2,76.1h-3l-1.4,8.6h3c1.1,0,1.4-0.9,1.5-1.6l0.9-5.4c0.1-0.6,0.1-1.1-0.2-1.3
			C56.9,76.2,56.6,76.1,56.2,76.1z"/>
		<path class="st3" d="M9.2,9.6v115.3h114.1c0,0,0.1,0,0.1-0.1V9.5L9.2,9.6C9.3,9.5,9.2,9.5,9.2,9.6z M62.8,76.3l-1.4,8.2
			c-0.3,1.5-1.3,2.7-2.5,3.2c1.1,0.5,1.6,1.7,1.4,3.2l-1.4,8.2c-0.7,4.3-3,6.6-6.4,6.6H44c-0.2,0-0.4-0.1-0.5-0.2
			c-0.1-0.2-0.2-0.4,0.1-0.8l5.6-34.1c0.1-0.6,0.4-0.9,0.9-0.9h8.5c1.5,0,2.7,0.4,3.4,1.3C62.9,72.2,63.2,73.9,62.8,76.3z
			 M71.8,105.8h-3.9c-1.5,0-2.6-0.5-3.5-1.3c-0.9-1.2-1.2-2.9-0.8-5.3l3.8-22.7c0.7-4.3,2.9-6.6,6.3-6.6h4c1.5,0,2.7,0.4,3.4,1.3
			c0.9,1.2,1.2,2.9,0.8,5.3l-3.8,22.7C77.4,103.5,75.2,105.8,71.8,105.8z M103.7,71.3l-8.1,16.2l2.7,17c0.1,0.4,0,0.8-0.2,1
			c-0.1,0.1-0.3,0.3-0.7,0.3h-3.6c-0.5,0-0.8-0.3-0.9-0.8l-1.5-10.2L86.5,105c-0.2,0.5-0.6,0.7-1.1,0.7h-3.6c-0.4,0-0.5-0.2-0.6-0.3
			c-0.2-0.2-0.1-0.6,0.1-1l8.4-17l-2.6-16.1c-0.1-0.4,0-0.8,0.2-1c0.1-0.1,0.3-0.3,0.7-0.3h3.5c0.5,0,0.8,0.3,0.9,0.8l1.4,9.9
			l4.8-10c0.2-0.5,0.6-0.7,1.1-0.7h3.5c0.4,0,0.5,0.2,0.6,0.3C104,70.5,103.9,70.9,103.7,71.3z M100,27.8h4.9c0.3,0,0.7,0.1,0.7,0.8
			l0.2,34.2c0,0.3-0.1,0.5-0.3,0.7c-0.2,0.1-0.4,0.2-0.6,0.2h-3.7c-0.3,0-0.6-0.2-0.6-0.8l0.1-6.3h-6l-2,6.3
			c-0.3,0.7-0.6,0.8-0.9,0.8H88c-0.3,0-0.4-0.1-0.5-0.2c-0.1-0.2-0.1-0.5,0-0.8l11.6-34.1C99.3,27.9,99.7,27.8,100,27.8z M68.9,57.3
			l3.8-22.7c0.8-4.3,3-6.6,6.4-6.6h4.7c1.5,0,2.7,0.4,3.4,1.3c0.9,1.1,1.2,2.8,0.8,5.2l-0.8,4.6c-0.1,0.6-0.4,0.9-0.9,0.9h-3.5
			c-0.2,0-0.4-0.1-0.5-0.2c-0.1-0.2-0.2-0.4-0.1-0.7l0.6-3.4c0.1-0.6,0-1-0.2-1.3c-0.2-0.2-0.5-0.3-0.8-0.3h-2.5
			c-0.8,0-1.3,0.5-1.5,1.6l-3.5,20.1c-0.1,0.6,0,1,0.2,1.3c0.2,0.2,0.4,0.3,0.8,0.3h2.6c0.8,0,1.3-0.5,1.5-1.6l1-5.7h-1.6
			c-0.2,0-0.4-0.1-0.5-0.2c-0.1-0.2-0.2-0.4-0.1-0.7l0.7-4.4c0.1-0.6,0.4-0.9,0.9-0.9h5.9c0.2,0,0.4,0.1,0.5,0.2
			c0.1,0.2,0.2,0.4,0.1,0.7l-2.1,12.3c-0.7,4.3-2.9,6.6-6.3,6.6h-4.7c-1.5,0-2.6-0.5-3.5-1.2C68.8,61.4,68.5,59.7,68.9,57.3z
			 M59.7,27.7h4c1.5,0,2.7,0.4,3.4,1.3c0.9,1.2,1.2,2.9,0.8,5.3L64.1,57c-0.7,4.3-2.9,6.6-6.3,6.6h-4c-1.5,0-2.6-0.5-3.4-1.4
			c-0.9-1.1-1.2-2.8-0.8-5.2l3.8-22.7C54,30,56.2,27.7,59.7,27.7z M33.1,28c0.1-0.2,0.4-0.3,0.7-0.3h3.5c0.5,0,0.8,0.3,0.9,0.9
			L40,40.7l5.8-12.2c0.2-0.5,0.6-0.8,1.1-0.8h3.5c0.3,0,0.5,0.1,0.6,0.3c0.1,0.2,0.2,0.5-0.1,1l-9.7,19.7l-2.3,13.7
			c-0.2,0.7-0.5,1.1-1.1,1.1h-3.4c-0.3,0-0.5,0-0.6-0.2c-0.1-0.1-0.2-0.4-0.1-0.8L36,48.7l-3.1-19.8C32.8,28.6,32.9,28.2,33.1,28z
			 M26.8,90.7l5.3-20.4c0,0,0-0.5,0.5-0.5c2,0,9.1,0,9.1,0c0.3,0,0.6,0.1,0.7,0.3c0.1,0.1,0.2,0.4,0,0.9l-6.7,14.2l3.9-0.3
			c0,0,0.2,0,0.2,0.1c0.1,0.1,0,0.2,0,0.2s-9.8,20.1-10.4,20.7c-0.1,0.1-0.2,0.1-0.3,0.1s-0.2-0.1-0.2-0.1c-0.2-0.2-0.1-0.5-0.1-0.8
			L31,91.7l0.1-0.8L27,91.2c0,0-0.1,0-0.2-0.1C26.7,90.9,26.8,90.7,26.8,90.7z"/>
		<path class="st3" d="M53.8,90.9h-3l-1.4,8.6h3c0.8,0,1.3-0.5,1.5-1.6l0.9-5.4c0.1-0.6,0-1.1-0.2-1.3C54.4,91,54.2,90.9,53.8,90.9z
			"/>
	</g>
	<g class="st0">
		<path class="st1" d="M28.2,145.2v-3.3h-4v3.3h-1.6V137h1.6v3.5h4V137h1.5v8.2H28.2z"/>
		<path class="st1" d="M34.1,145.2V137h1.5v8.2H34.1z"/>
		<path class="st1" d="M41.6,136.9v6.8h4.2v1.4H40v-8.2H41.6L41.6,136.9z"/>
		<path class="st1" d="M51.5,136.9v6.8h4.2v1.4h-5.8v-8.2H51.5L51.5,136.9z"/>
		<path class="st1" d="M67,144.1c-0.8,0.8-1.9,1.2-3.1,1.2c-3.1,0-4.4-2.1-4.4-4.2c0-2.2,1.4-4.3,4.4-4.3c1.1,0,2.2,0.4,3,1.3l-1,1
			c-0.5-0.5-1.3-0.8-2-0.8c-2,0-2.8,1.5-2.8,2.9s0.8,2.8,2.8,2.8c0.7,0,1.5-0.3,2.1-0.8L67,144.1z"/>
		<path class="st1" d="M78.1,145.2h-1.8l-2.4-2.8h-1.5v2.8h-1.6v-8.3c1.3,0,2.6,0,3.9,0c1.9,0,3,1.3,3,2.7c0,1.1-0.5,2.3-2.1,2.6
			l2.5,2.8V145.2L78.1,145.2z M72.4,138.4v2.6h2.4c1,0,1.4-0.7,1.4-1.3c0-0.7-0.4-1.3-1.4-1.3H72.4L72.4,138.4z"/>
		<path class="st1" d="M87.9,145.2h-6.2c0-2.7,0-5.5,0-8.2h6.2v1.5h-4.6v1.9h4.5v1.4h-4.5v1.9h4.6V145.2z"/>
		<path class="st1" d="M97.3,138.9c-0.3-0.5-1.1-0.9-2-0.9c-1.2,0-1.7,0.5-1.7,1.1c0,0.7,0.8,0.9,1.8,1c1.7,0.2,3.3,0.7,3.3,2.6
			c0,1.8-1.6,2.6-3.5,2.6c-1.7,0-3-0.5-3.6-2l1.3-0.7c0.4,0.9,1.3,1.3,2.3,1.3s1.9-0.3,1.9-1.2c0-0.8-0.8-1.1-1.9-1.2
			c-1.7-0.2-3.2-0.6-3.2-2.5c0-1.7,1.7-2.4,3.2-2.4c1.3,0,2.6,0.4,3.2,1.6L97.3,138.9z"/>
		<path class="st1" d="M105.1,138.4h-2.6V137c2.4,0,4.4,0,6.8,0v1.4h-2.6v6.8h-1.6L105.1,138.4L105.1,138.4z"/>
	</g>
	<g>
		<path class="st4" d="M12,138.7c0.6,0.3,1,0.6,1.3,1.1c0.3,0.5,0.5,1,0.5,1.7s-0.2,1.2-0.5,1.6c-0.3,0.5-0.7,0.8-1.3,1.1
			c-0.6,0.3-1.2,0.4-2,0.4H8.5v2.2H6.1v-8.4H10C10.7,138.3,11.4,138.5,12,138.7z M10.9,142.4c0.2-0.2,0.4-0.5,0.4-0.9
			s-0.1-0.7-0.4-0.9c-0.2-0.2-0.6-0.3-1.1-0.3H8.5v2.5h1.3C10.3,142.7,10.7,142.6,10.9,142.4z"/>
		<path class="st4" d="M21.9,145.1h-3.6l-0.7,1.6h-2.4l3.7-8.4h2.3l3.7,8.4h-2.5L21.9,145.1z M21.2,143.4l-1.1-2.7l-1.1,2.7H21.2z"
			/>
		<path class="st4" d="M29.2,146.4c-0.7-0.4-1.3-0.9-1.7-1.6s-0.6-1.4-0.6-2.3s0.2-1.6,0.6-2.3s1-1.2,1.7-1.6
			c0.7-0.4,1.5-0.6,2.4-0.6c0.8,0,1.5,0.1,2.1,0.4c0.6,0.3,1.1,0.7,1.5,1.2l-1.5,1.4c-0.5-0.7-1.2-1-2-1c-0.5,0-0.9,0.1-1.2,0.3
			c-0.4,0.2-0.6,0.5-0.8,0.8c-0.2,0.4-0.3,0.8-0.3,1.3c0,0.5,0.1,0.9,0.3,1.3c0.2,0.4,0.5,0.6,0.8,0.8c0.4,0.2,0.8,0.3,1.2,0.3
			c0.8,0,1.4-0.3,2-1l1.5,1.4c-0.4,0.5-0.9,0.9-1.5,1.2c-0.6,0.3-1.3,0.4-2.1,0.4C30.7,146.9,29.9,146.7,29.2,146.4z"/>
		<path class="st4" d="M38,138.3h2.4v8.4H38V138.3z"/>
		<path class="st4" d="M46.3,140.2v1.8H50v1.8h-3.7v2.9h-2.4v-8.4h6.6v1.8H46.3z"/>
		<path class="st4" d="M53.4,138.3h2.4v8.4h-2.4V138.3z"/>
		<path class="st4" d="M61.1,146.4c-0.7-0.4-1.3-0.9-1.7-1.6s-0.6-1.4-0.6-2.3s0.2-1.6,0.6-2.3s1-1.2,1.7-1.6
			c0.7-0.4,1.5-0.6,2.4-0.6c0.8,0,1.5,0.1,2.1,0.4c0.6,0.3,1.1,0.7,1.5,1.2l-1.5,1.4c-0.5-0.7-1.2-1-2-1c-0.5,0-0.9,0.1-1.2,0.3
			c-0.4,0.2-0.6,0.5-0.8,0.8c-0.2,0.4-0.3,0.8-0.3,1.3c0,0.5,0.1,0.9,0.3,1.3c0.2,0.4,0.5,0.6,0.8,0.8c0.4,0.2,0.8,0.3,1.2,0.3
			c0.8,0,1.4-0.3,2-1l1.5,1.4c-0.4,0.5-0.9,0.9-1.5,1.2c-0.6,0.3-1.3,0.4-2.1,0.4C62.6,146.9,61.8,146.7,61.1,146.4z"/>
		<path class="st4" d="M82.8,143.2c0.3,0.4,0.4,0.8,0.4,1.3c0,0.7-0.3,1.3-0.9,1.7c-0.6,0.4-1.4,0.6-2.6,0.6h-4.5v-8.4h4.3
			c1.1,0,1.9,0.2,2.4,0.6c0.6,0.4,0.8,0.9,0.8,1.6c0,0.4-0.1,0.8-0.3,1.1s-0.5,0.6-0.8,0.8C82.1,142.5,82.5,142.8,82.8,143.2z
			 M77.6,140.1v1.6h1.6c0.8,0,1.2-0.3,1.2-0.8c0-0.5-0.4-0.8-1.2-0.8H77.6z M80.8,144.2c0-0.6-0.4-0.9-1.2-0.9h-2v1.7h2
			C80.4,145,80.8,144.8,80.8,144.2z"/>
		<path class="st4" d="M93,144.9v1.8h-6.7v-8.4h6.6v1.8h-4.2v1.4h3.7v1.8h-3.7v1.5H93z"/>
		<path class="st4" d="M101.7,145.1h-3.6l-0.7,1.6h-2.4l3.7-8.4h2.3l3.7,8.4h-2.5L101.7,145.1z M101,143.4l-1.1-2.7l-1.1,2.7H101z"
			/>
		<path class="st4" d="M109,146.4c-0.7-0.4-1.3-0.9-1.7-1.6s-0.6-1.4-0.6-2.3s0.2-1.6,0.6-2.3s1-1.2,1.7-1.6s1.5-0.6,2.4-0.6
			c0.8,0,1.5,0.1,2.1,0.4c0.6,0.3,1.1,0.7,1.5,1.2l-1.5,1.4c-0.5-0.7-1.2-1-2-1c-0.5,0-0.9,0.1-1.2,0.3c-0.4,0.2-0.6,0.5-0.8,0.8
			c-0.2,0.4-0.3,0.8-0.3,1.3c0,0.5,0.1,0.9,0.3,1.3c0.2,0.4,0.5,0.6,0.8,0.8c0.4,0.2,0.8,0.3,1.2,0.3c0.8,0,1.4-0.3,2-1l1.5,1.4
			c-0.4,0.5-0.9,0.9-1.5,1.2c-0.6,0.3-1.3,0.4-2.1,0.4C110.5,146.9,109.7,146.7,109,146.4z"/>
		<path class="st4" d="M125.9,138.3v8.4h-2.4v-3.3h-3.2v3.3h-2.4v-8.4h2.4v3.2h3.2v-3.2H125.9z"/>
	</g>
</g>
</svg>
