<?xml version="1.0" encoding="utf-8"?>
<!-- Generator: Adobe Illustrator 19.1.0, SVG Export Plug-In . SVG Version: 6.00 Build 0)  -->
<svg version="1.1" xmlns="http://www.w3.org/2000/svg" xmlns:xlink="http://www.w3.org/1999/xlink" x="0px" y="0px"
	 viewBox="-239 329.6 132 149" style="enable-background:new -239 329.6 132 149;" xml:space="preserve">
<style type="text/css">
	.st0{display:none;}
	.st1{display:inline;}
	.st2{fill:#FFFFFF;}
</style>
<g id="Layer_2" class="st0">
	<rect x="-239.2" y="329.6" class="st1" width="132.2" height="149"/>
</g>
<g id="Layer_3">
	<rect x="-243.2" y="462.7" class="st2" width="142" height="15.9"/>
</g>
<g id="Layer_1">
	<g>
		<path class="st2" d="M-183.2,387.2h2c0.8,0,1.3-0.5,1.5-1.6l3.4-20.5c0.1-0.5,0-1-0.2-1.2c-0.2-0.2-0.5-0.3-0.8-0.3h-2
			c-1,0-1.4,0.9-1.5,1.6l-3.4,20.4c-0.1,0.6,0,1,0.2,1.3C-183.8,387.1-183.6,387.2-183.2,387.2z"/>
		<polygon class="st2" points="-138.1,366.6 -142.5,380.7 -138.4,380.7 		"/>
		<path class="st2" d="M-163.1,405.5h-2c-1,0-1.4,0.9-1.5,1.6l-3.4,20.5c-0.1,0.6,0,1,0.2,1.3c0.2,0.2,0.4,0.3,0.8,0.3h2
			c0.8,0,1.3-0.5,1.5-1.6l3.4-20.5c0.1-0.6,0-1-0.2-1.3C-162.5,405.6-162.8,405.5-163.1,405.5z"/>
		<path class="st2" d="M-182.8,405.7h-3l-1.4,8.6h3c1.1,0,1.4-0.9,1.5-1.6l0.9-5.4c0.1-0.6,0.1-1.1-0.2-1.3
			C-182.1,405.8-182.4,405.7-182.8,405.7z"/>
		<path class="st2" d="M-229.8,339.2v115.3h114.1c0,0,0.1,0,0.1-0.1V339.1L-229.8,339.2C-229.7,339.1-229.8,339.1-229.8,339.2z
			 M-176.2,405.9l-1.4,8.2c-0.3,1.5-1.3,2.7-2.5,3.2c1.1,0.5,1.6,1.7,1.4,3.2l-1.4,8.2c-0.7,4.3-3,6.6-6.4,6.6h-8.5
			c-0.2,0-0.4-0.1-0.5-0.2c-0.1-0.2-0.2-0.4,0.1-0.8l5.6-34.1c0.1-0.6,0.4-0.9,0.9-0.9h8.5c1.5,0,2.7,0.4,3.4,1.3
			C-176.1,401.8-175.8,403.5-176.2,405.9z M-167.2,435.4h-3.9c-1.5,0-2.6-0.5-3.5-1.3c-0.9-1.2-1.2-2.9-0.8-5.3l3.8-22.7
			c0.7-4.3,2.9-6.6,6.3-6.6h4c1.5,0,2.7,0.4,3.4,1.3c0.9,1.2,1.2,2.9,0.8,5.3l-3.8,22.7C-161.6,433.1-163.8,435.4-167.2,435.4z
			 M-135.3,400.9l-8.1,16.2l2.7,17c0.1,0.4,0,0.8-0.2,1c-0.1,0.1-0.3,0.3-0.7,0.3h-3.6c-0.5,0-0.8-0.3-0.9-0.8l-1.5-10.2l-4.9,10.2
			c-0.2,0.5-0.6,0.7-1.1,0.7h-3.6c-0.4,0-0.5-0.2-0.6-0.3c-0.2-0.2-0.1-0.6,0.1-1l8.4-17l-2.6-16.1c-0.1-0.4,0-0.8,0.2-1
			c0.1-0.1,0.3-0.3,0.7-0.3h3.5c0.5,0,0.8,0.3,0.9,0.8l1.4,9.9l4.8-10c0.2-0.5,0.6-0.7,1.1-0.7h3.5c0.4,0,0.5,0.2,0.6,0.3
			C-135,400.1-135.1,400.5-135.3,400.9z M-139,357.4h4.9c0.3,0,0.7,0.1,0.7,0.8l0.2,34.2c0,0.3-0.1,0.5-0.3,0.7
			c-0.2,0.1-0.4,0.2-0.6,0.2h-3.7c-0.3,0-0.6-0.2-0.6-0.8l0.1-6.3h-6l-2,6.3c-0.3,0.7-0.6,0.8-0.9,0.8h-3.8c-0.3,0-0.4-0.1-0.5-0.2
			c-0.1-0.2-0.1-0.5,0-0.8l11.6-34.1C-139.7,357.5-139.3,357.4-139,357.4z M-170.1,386.9l3.8-22.7c0.8-4.3,3-6.6,6.4-6.6h4.7
			c1.5,0,2.7,0.4,3.4,1.3c0.9,1.1,1.2,2.8,0.8,5.2l-0.8,4.6c-0.1,0.6-0.4,0.9-0.9,0.9h-3.5c-0.2,0-0.4-0.1-0.5-0.2
			c-0.1-0.2-0.2-0.4-0.1-0.7l0.6-3.4c0.1-0.6,0-1-0.2-1.3c-0.2-0.2-0.5-0.3-0.8-0.3h-2.5c-0.8,0-1.3,0.5-1.5,1.6l-3.5,20.1
			c-0.1,0.6,0,1,0.2,1.3c0.2,0.2,0.4,0.3,0.8,0.3h2.6c0.8,0,1.3-0.5,1.5-1.6l1-5.7h-1.6c-0.2,0-0.4-0.1-0.5-0.2
			c-0.1-0.2-0.2-0.4-0.1-0.7l0.7-4.4c0.1-0.6,0.4-0.9,0.9-0.9h5.9c0.2,0,0.4,0.1,0.5,0.2c0.1,0.2,0.2,0.4,0.1,0.7l-2.1,12.3
			c-0.7,4.3-2.9,6.6-6.3,6.6h-4.7c-1.5,0-2.6-0.5-3.5-1.2C-170.2,391-170.5,389.3-170.1,386.9z M-179.3,357.3h4
			c1.5,0,2.7,0.4,3.4,1.3c0.9,1.2,1.2,2.9,0.8,5.3l-3.8,22.7c-0.7,4.3-2.9,6.6-6.3,6.6h-4c-1.5,0-2.6-0.5-3.4-1.4
			c-0.9-1.1-1.2-2.8-0.8-5.2l3.8-22.7C-185,359.6-182.8,357.3-179.3,357.3z M-205.9,357.6c0.1-0.2,0.4-0.3,0.7-0.3h3.5
			c0.5,0,0.8,0.3,0.9,0.9l1.8,12.1l5.8-12.2c0.2-0.5,0.6-0.8,1.1-0.8h3.5c0.3,0,0.5,0.1,0.6,0.3c0.1,0.2,0.2,0.5-0.1,1l-9.7,19.7
			l-2.3,13.7c-0.2,0.7-0.5,1.1-1.1,1.1h-3.4c-0.3,0-0.5,0-0.6-0.2c-0.1-0.1-0.2-0.4-0.1-0.8l2.3-13.8l-3.1-19.8
			C-206.2,358.2-206.1,357.8-205.9,357.6z M-212.2,420.3l5.3-20.4c0,0,0-0.5,0.5-0.5c2,0,9.1,0,9.1,0c0.3,0,0.6,0.1,0.7,0.3
			c0.1,0.1,0.2,0.4,0,0.9l-6.7,14.2l3.9-0.3c0,0,0.2,0,0.2,0.1c0.1,0.1,0,0.2,0,0.2s-9.8,20.1-10.4,20.7c-0.1,0.1-0.2,0.1-0.3,0.1
			c-0.1,0-0.2-0.1-0.2-0.1c-0.2-0.2-0.1-0.5-0.1-0.8l2.2-13.4l0.1-0.8l-4.1,0.3c0,0-0.1,0-0.2-0.1
			C-212.3,420.5-212.2,420.3-212.2,420.3z"/>
		<path class="st2" d="M-185.2,420.5h-3l-1.4,8.6h3c0.8,0,1.3-0.5,1.5-1.6l0.9-5.4c0.1-0.6,0-1.1-0.2-1.3
			C-184.6,420.6-184.8,420.5-185.2,420.5z"/>
	</g>
	<g>
		<path d="M-204.6,478.4v-2.8h-3.4v2.8h-1.3v-6.9h1.3v2.9h3.4v-2.9h1.3v6.9H-204.6z"/>
		<path d="M-199.6,478.4v-6.9h1.3v6.9H-199.6z"/>
		<path d="M-193.4,471.5v5.7h3.5v1.2h-4.8v-6.9H-193.4z"/>
		<path d="M-185.2,471.5v5.7h3.5v1.2h-4.8v-6.9H-185.2z"/>
		<path d="M-172.2,477.6c-0.7,0.7-1.6,1-2.6,1c-2.6,0-3.6-1.8-3.6-3.5c0-1.8,1.2-3.6,3.6-3.6c0.9,0,1.8,0.4,2.5,1.1l-0.9,0.8
			c-0.5-0.4-1.1-0.6-1.7-0.6c-1.7,0-2.4,1.2-2.4,2.4c0,1.1,0.7,2.3,2.4,2.3c0.6,0,1.3-0.2,1.7-0.7L-172.2,477.6z"/>
		<path d="M-162.9,478.4h-1.5l-2-2.3h-1.2v2.3h-1.3v-6.9c1.1,0,2.2,0,3.3,0c1.6,0,2.5,1.1,2.5,2.3c0,0.9-0.4,1.9-1.7,2.2
			L-162.9,478.4L-162.9,478.4z M-167.7,472.8v2.2h2c0.8,0,1.2-0.6,1.2-1.1s-0.4-1.1-1.2-1.1H-167.7z"/>
		<path d="M-154.8,478.4h-5.2c0-2.3,0-4.6,0-6.9h5.2v1.3h-3.9v1.6h3.7v1.2h-3.7v1.6h3.9V478.4z"/>
		<path d="M-146.8,473.2c-0.2-0.4-0.9-0.8-1.6-0.8c-1,0-1.4,0.4-1.4,0.9c0,0.6,0.7,0.8,1.5,0.9c1.4,0.2,2.8,0.6,2.8,2.2
			c0,1.5-1.4,2.2-2.9,2.2c-1.4,0-2.5-0.4-3-1.7l1.1-0.6c0.3,0.8,1.1,1.1,1.9,1.1c0.8,0,1.6-0.3,1.6-1c0-0.6-0.7-0.9-1.6-1
			c-1.4-0.2-2.7-0.5-2.7-2.1c0-1.4,1.4-2,2.7-2c1.1,0,2.2,0.3,2.7,1.4L-146.8,473.2z"/>
		<path d="M-140.4,472.7h-2.2v-1.2c2,0,3.7,0,5.7,0v1.2h-2.2v5.7h-1.3V472.7z"/>
	</g>
</g>
</svg>
