<?xml version="1.0" encoding="utf-8"?>
<!-- Generator: Adobe Illustrator 26.0.2, SVG Export Plug-In . SVG Version: 6.00 Build 0)  -->
<svg version="1.1" id="Layer_1" xmlns="http://www.w3.org/2000/svg" xmlns:xlink="http://www.w3.org/1999/xlink" x="0px" y="0px"
	 width="760.3px" height="145.5px" viewBox="0 0 760.3 145.5" style="enable-background:new 0 0 760.3 145.5;" xml:space="preserve"
	>
<style type="text/css">
	.st0{opacity:0.15;}
	.st1{fill:#2A2A2A;}
</style>
<g class="st0">
	<path class="st1" d="M7.8,73.5c0-39.7,30.4-67.9,71.8-67.9c24.1,0,43.4,8.8,56.1,24.6l-23.5,21.3C104,41.6,94,36.2,81.5,36.2
		c-21.4,0-36.4,14.9-36.4,37.3c0,22.4,14.9,37.3,36.4,37.3c12.5,0,22.6-5.4,30.8-15.3l23.5,21.3c-12.7,15.8-32.1,24.6-56.1,24.6
		C38.2,141.4,7.8,113.2,7.8,73.5z"/>
	<path class="st1" d="M135.4,88.1c0-30.4,24.1-52,57.1-52c33.4,0,57.1,21.6,57.1,52c0,30.6-23.7,52.4-57.1,52.4
		C159.4,140.4,135.4,118.6,135.4,88.1z M213.7,88.1c0-15.3-9.1-23.9-21.3-23.9c-11.9,0-21.3,8.6-21.3,23.9
		c0,15.5,9.3,24.2,21.3,24.2C204.5,112.3,213.7,103.5,213.7,88.1z"/>
	<path class="st1" d="M367.9,81v57.8h-35.4v-52c0-14.5-6.3-20.7-16.6-20.7c-11.4,0-20.1,7.1-20.1,23.9v48.8h-35.4V37.7H294v11
		c8-8.4,19.4-12.7,32.1-12.7C349.8,36,367.9,49.6,367.9,81z"/>
	<path class="st1" d="M454.2,134.7c-6.2,3.9-15.3,5.8-24.6,5.8c-25.9,0-41-12.7-41-38.6V67.9h-14.7V41.4h14.7V15.2H424v26.3h23.1
		v26.5H424v33.6c0,7.5,4.3,11.6,10.6,11.6c3.9,0,7.8-1.1,10.8-3.2L454.2,134.7z"/>
	<path class="st1" d="M556.9,82.6v56.1h-33v-13.1c-5,9.7-15.1,14.7-29.8,14.7c-24.2,0-37.7-13.6-37.7-31.1
		c0-18.6,13.6-30.2,44.9-30.2h20.1c-0.6-10.3-7.5-16-21.4-16c-9.7,0-20.5,3.4-27.4,8.8l-11.9-24.1c11.6-7.6,28.7-11.7,44.6-11.7
		C538.1,36,556.9,50.6,556.9,82.6z M521.5,106.3v-8.8h-15.3c-11.4,0-15.5,4.1-15.5,10.3c0,6,4.8,10.3,13.2,10.3
		C511.8,118.1,518.7,114.3,521.5,106.3z"/>
	<path class="st1" d="M568.8,88.1c0-30.4,24.1-52,58-52c22.9,0,40.5,10.3,47.4,27.8l-27.4,14c-4.8-9.5-11.9-13.6-20.1-13.6
		c-12.3,0-22,8.6-22,23.9c0,15.7,9.7,24.2,22,24.2c8.2,0,15.3-4.1,20.1-13.6l27.4,14c-6.9,17.5-24.4,27.8-47.4,27.8
		C592.9,140.4,568.8,118.8,568.8,88.1z"/>
	<path class="st1" d="M753.4,134.7c-6.2,3.9-15.3,5.8-24.6,5.8c-25.9,0-41-12.7-41-38.6V67.9h-14.7V41.4h14.7V15.2h35.4v26.3h23.1
		v26.5h-23.1v33.6c0,7.5,4.3,11.6,10.6,11.6c3.9,0,7.8-1.1,10.8-3.2L753.4,134.7z"/>
</g>
</svg>
