<?xml version="1.0" encoding="utf-8"?>
<!-- Generator: Adobe Illustrator 26.0.2, SVG Export Plug-In . SVG Version: 6.00 Build 0)  -->
<svg version="1.1" id="Layer_1" xmlns="http://www.w3.org/2000/svg" xmlns:xlink="http://www.w3.org/1999/xlink" x="0px" y="0px"
	 width="909.2px" height="157.8px" viewBox="0 0 909.2 157.8" style="enable-background:new 0 0 909.2 157.8;" xml:space="preserve"
	>
<style type="text/css">
	.st0{opacity:0.15;}
	.st1{fill:#2A2A2A;}
</style>
<g class="st0">
	<path class="st1" d="M6.2,22.8h36.9V124h62.3v29.3H6.2V22.8z"/>
	<path class="st1" d="M106,102.6c0-30.4,24.1-52,57.1-52c33.4,0,57.1,21.6,57.1,52c0,30.6-23.7,52.4-57.1,52.4
		C130,155,106,133.2,106,102.6z M184.3,102.6c0-15.3-9.1-23.9-21.3-23.9c-11.9,0-21.3,8.6-21.3,23.9c0,15.5,9.3,24.2,21.3,24.2
		C175.1,126.8,184.3,118.1,184.3,102.6z"/>
	<path class="st1" d="M224.5,102.6c0-30.4,24.1-52,58-52c22.9,0,40.5,10.3,47.4,27.8l-27.4,14c-4.8-9.5-11.9-13.6-20.1-13.6
		c-12.3,0-22,8.6-22,23.9c0,15.7,9.7,24.2,22,24.2c8.2,0,15.3-4.1,20.1-13.6l27.4,14c-6.9,17.5-24.4,27.8-47.4,27.8
		C248.6,155,224.5,133.4,224.5,102.6z"/>
	<path class="st1" d="M432.4,97.2v56.1h-33v-13.1c-5,9.7-15.1,14.7-29.8,14.7c-24.2,0-37.7-13.6-37.7-31.1
		c0-18.6,13.6-30.2,44.9-30.2H397c-0.6-10.3-7.5-16-21.4-16c-9.7,0-20.5,3.4-27.4,8.8l-11.9-24.1c11.6-7.6,28.7-11.7,44.6-11.7
		C413.6,50.6,432.4,65.1,432.4,97.2z M397,120.9v-8.8h-15.3c-11.4,0-15.5,4.1-15.5,10.3c0,6,4.8,10.3,13.2,10.3
		C387.3,132.6,394.2,128.9,397,120.9z"/>
	<path class="st1" d="M519,149.2c-6.2,3.9-15.3,5.8-24.6,5.8c-25.9,0-41-12.7-41-38.6V82.5h-14.7V56h14.7V29.7h35.4V56h23.1v26.5
		h-23.1V116c0,7.5,4.3,11.6,10.6,11.6c3.9,0,7.8-1.1,10.8-3.2L519,149.2z"/>
	<path class="st1" d="M523.1,22.2c0-10.6,8.6-18.8,21.6-18.8c13.1,0,21.6,7.6,21.6,18.3c0,11.2-8.6,19.4-21.6,19.4
		C531.6,41.1,523.1,32.9,523.1,22.2z M527,52.3h35.4v101.1H527V52.3z"/>
	<path class="st1" d="M573.4,102.6c0-30.4,24.1-52,57.1-52c33.4,0,57.1,21.6,57.1,52c0,30.6-23.7,52.4-57.1,52.4
		C597.4,155,573.4,133.2,573.4,102.6z M651.7,102.6c0-15.3-9.1-23.9-21.3-23.9c-11.9,0-21.3,8.6-21.3,23.9
		c0,15.5,9.3,24.2,21.3,24.2C642.6,126.8,651.7,118.1,651.7,102.6z"/>
	<path class="st1" d="M805.9,95.5v57.8h-35.4v-52c0-14.5-6.3-20.7-16.6-20.7c-11.4,0-20.1,7.1-20.1,23.9v48.8h-35.4V52.3h33.7v11
		c8-8.4,19.4-12.7,32.1-12.7C787.8,50.6,805.9,64.2,805.9,95.5z"/>
	<path class="st1" d="M814.5,144.6l10.6-24.2c9.3,5.8,22.9,9.3,35.2,9.3c11.9,0,15.8-2.6,15.8-6.9c0-13.6-59.7,1.9-59.7-38.6
		c0-19,17.5-33.6,49.2-33.6c14.2,0,29.8,3,39.9,8.6L895,83.2c-10.1-5.6-20.1-7.5-29.1-7.5c-11.9,0-16.2,3.4-16.2,7.1
		c0,14,59.5-1.1,59.5,39c0,18.6-17.2,33.2-50,33.2C842.1,155,824.4,150.7,814.5,144.6z"/>
</g>
</svg>
