<?xml version="1.0" encoding="utf-8"?>
<!-- Generator: Adobe Illustrator 25.4.1, SVG Export Plug-In . SVG Version: 6.00 Build 0)  -->
<svg version="1.1" id="Layer_1" xmlns="http://www.w3.org/2000/svg" xmlns:xlink="http://www.w3.org/1999/xlink" x="0px" y="0px"
	 viewBox="0 0 269 268" style="enable-background:new 0 0 269 268;" xml:space="preserve">
<style type="text/css">
	.st0{fill:#646464;stroke:#646464;stroke-width:4;stroke-miterlimit:10;}
</style>
<path class="st0" d="M125.43,7.49h16.74c2.99,0.38,5.98,0.7,8.96,1.14c24.86,3.63,46.89,13.54,65.71,30.2
	c22.84,20.22,36.76,45.45,41.52,75.65c0.56,3.54,0.98,7.11,1.46,10.66v16.74c-0.38,2.99-0.69,6-1.14,8.98
	c-5.04,33.23-20.48,60.61-46.84,81.44c-27.93,22.08-59.94,30.77-95.16,26.01c-33.3-4.5-60.66-20.28-81.53-46.61
	c-22.18-27.97-30.75-60.02-26.17-95.36c3.09-24.49,13.6-47.45,30.1-65.8c20.23-22.87,45.48-36.81,75.7-41.58
	C118.32,8.39,121.88,7.97,125.43,7.49z M133.88,21.94C72.67,21.67,22.51,71.75,22.24,133.42c-0.27,61.22,49.81,111.37,111.48,111.65
	c61.22,0.27,111.38-49.81,111.65-111.48C245.63,72.37,195.55,22.21,133.88,21.94L133.88,21.94z"/>
<path class="st0" d="M115.31,147.34c-7.73,0-15.03,0.07-22.32-0.02c-4.76-0.02-8.84-3.39-9.76-8.06c-0.95-4.54,1.41-9.12,5.66-10.98
	c2.15-0.74,4.41-1.1,6.68-1.05c6.48-0.13,12.97-0.05,19.73-0.05c0-8.62-0.01-16.83,0-25.03c0.02-21.72,15.31-37.02,37.02-37.04
	c7.08-0.01,14.17-0.03,21.25,0.01c6.38,0.03,10.79,4.02,10.93,9.79c0.14,5.76-4.03,10.12-10.42,10.33
	c-7.08,0.23-14.16,0.06-21.25,0.09c-11.44,0.05-17.3,5.86-17.36,17.26c-0.04,7.65,0.01,15.31,0.02,22.96
	c0.05,0.48,0.13,0.96,0.24,1.44c1.12,0.06,2.32,0.19,3.52,0.19c9.83,0.02,19.65-0.11,29.47,0.05c8.19,0.13,13.07,6.79,10.32,13.74
	c-1.51,3.97-5.38,6.53-9.63,6.36c-9.94,0.05-19.88,0.02-29.82,0.02c-1.24,0-2.48,0-4.14,0c0,1.61,0,2.95,0,4.29
	c0,28.33,0,56.67,0,85c0,1.37,0.02,2.75-0.11,4.11c-0.57,6.09-4.81,9.83-10.73,9.52c-5.35-0.28-9.27-4.53-9.3-10.29
	c-0.06-8.91-0.02-17.82-0.02-26.73c0-20.56,0-41.13,0-61.69L115.31,147.34z"/>
</svg>
