<?xml version="1.0" encoding="utf-8"?>
<!-- Generator: Adobe Illustrator 25.4.1, SVG Export Plug-In . SVG Version: 6.00 Build 0)  -->
<svg version="1.1" id="Layer_1" xmlns="http://www.w3.org/2000/svg" xmlns:xlink="http://www.w3.org/1999/xlink" x="0px" y="0px"
	 viewBox="0 0 269 269" style="enable-background:new 0 0 269 269;" xml:space="preserve">
<style type="text/css">
	.st0{fill:#646464;stroke:#646464;stroke-width:4;stroke-miterlimit:10;}
</style>
<path class="st0" d="M261.32,72.04v125.55c-0.42,2.39-0.72,4.81-1.27,7.17c-6.51,27.81-23.46,45.73-50.96,53.53
	c-3.43,0.97-7.01,1.39-10.52,2.07H73.04c-0.63-0.16-1.25-0.33-1.88-0.48c-5.6-1.38-11.48-2.08-16.76-4.25
	c-25-10.28-39.55-28.99-43.56-55.77c-0.4-3.08-0.58-6.18-0.52-9.29c-0.03-37.19-0.05-74.38-0.04-111.57
	c-0.01-9.77,1.49-19.29,5.66-28.09C28.71,23.95,50.1,9.64,80.02,9.36c37.18-0.35,74.36-0.07,111.55-0.1
	c6.79-0.13,13.55,0.79,20.05,2.74c24.78,7.91,40.71,24.43,47.63,49.53C260.2,64.97,260.65,68.54,261.32,72.04z M246.48,134.81
	c0-18.06,0.04-36.12-0.03-54.18c0.02-3.59-0.24-7.18-0.77-10.73c-2.94-18.18-12.84-31.42-29.04-39.99c-8.12-4.29-16.9-5.8-26-5.8
	c-36.28,0-72.55,0.01-108.83,0.03c-3.67-0.03-7.34,0.23-10.97,0.79C52.85,27.85,39.7,37.61,31.11,53.58c-4.43,8.24-6,17.18-6,26.45
	c0,36.12,0.01,72.24,0.03,108.36c-0.04,3.84,0.23,7.67,0.8,11.46c2.91,17.89,12.62,30.99,28.47,39.59
	c8.23,4.46,17.15,6.08,26.42,6.08c28.02,0.01,56.05,0,84.07-0.01c10.29-0.01,20.6,0.22,30.87-0.33c18.21-0.98,32.2-9.65,42.2-24.79
	c6.08-9.2,8.5-19.49,8.5-30.42C246.48,171.58,246.49,153.19,246.48,134.81z"/>
<path class="st0" d="M138.59,203.54c-37.98,1.52-69.99-28.04-71.51-66.01s28.04-69.99,66.01-71.51
	c36.55-1.46,67.86,25.92,71.27,62.34C208.02,169.98,175.65,202.46,138.59,203.54z M189.76,135.01c0.1-29.8-23.98-54.04-53.78-54.15
	c-29.8-0.1-54.04,23.98-54.15,53.78s23.98,54.04,53.78,54.15c0.02,0,0.03,0,0.05,0C165.42,188.79,189.59,164.76,189.76,135.01z"/>
<path class="st0" d="M220.18,63.59c-0.05,6.87-5.63,12.41-12.5,12.41c-6.89-0.02-12.46-5.62-12.45-12.51
	c0.02-6.87,5.59-12.44,12.46-12.45c6.83-0.07,12.42,5.41,12.49,12.24C220.18,63.39,220.18,63.49,220.18,63.59z"/>
</svg>
