<?xml version="1.0" encoding="utf-8"?>
<!-- Generator: Adobe Illustrator 25.4.1, SVG Export Plug-In . SVG Version: 6.00 Build 0)  -->
<svg version="1.1" id="Layer_1" xmlns="http://www.w3.org/2000/svg" xmlns:xlink="http://www.w3.org/1999/xlink" x="0px" y="0px"
	 viewBox="0 0 861.4 206.8" style="enable-background:new 0 0 861.4 206.8;" xml:space="preserve">
<style type="text/css">
	.st0{opacity:7.000000e-02;}
</style>
<g class="st0">
	<path d="M104.9,29.7c8.8,4,15.6,9.6,20.4,17c4.8,7.4,7.2,16,7.2,26c0,10-2.4,18.6-7.2,25.9c-4.8,7.3-11.6,12.9-20.4,16.9
		c-8.8,4-19.2,6-31.2,6H50.7v34.6H13.2V23.8h60.5C85.7,23.8,96.1,25.7,104.9,29.7z M88.8,87c3.9-3.3,5.9-8.1,5.9-14.3
		c0-6.2-2-11-5.9-14.4c-3.9-3.4-9.7-5.1-17.4-5.1H50.7V92h20.8C79.1,92,84.9,90.3,88.8,87z"/>
	<path d="M194.6,55.4c5.9-2.3,12.6-3.5,20.1-3.5v32.3c-3.3-0.4-6-0.6-8.1-0.6c-7.7,0-13.7,2.1-18,6.2c-4.3,4.2-6.5,10.5-6.5,19.1
		v47.1h-35.9V53.6h34.2v12.3C184,61.2,188.7,57.7,194.6,55.4z"/>
	<path d="M246.5,150.9c-8.8-4.5-15.7-10.8-20.7-18.9c-5-8.1-7.5-17.2-7.5-27.4c0-10.1,2.5-19.2,7.5-27.2c5-8.1,11.8-14.3,20.6-18.8
		c8.8-4.5,18.7-6.7,29.8-6.7c11.1,0,21,2.2,29.9,6.7c8.8,4.5,15.7,10.7,20.6,18.7c4.9,8,7.4,17.1,7.4,27.3c0,10.2-2.5,19.3-7.4,27.4
		c-4.9,8.1-11.8,14.4-20.6,18.9c-8.8,4.5-18.8,6.8-29.9,6.8C265.2,157.8,255.3,155.5,246.5,150.9z M291.6,122.7c4-4.3,6-10.4,6-18
		c0-7.6-2-13.5-6-17.8c-4-4.3-9.2-6.4-15.5-6.4c-6.3,0-11.5,2.1-15.5,6.4c-4,4.3-6,10.2-6,17.8c0,7.7,2,13.7,6,18
		c4,4.3,9.2,6.5,15.5,6.5C282.4,129.2,287.6,127,291.6,122.7z"/>
	<path d="M457,53.6v83.7c0,19-5.2,33.3-15.5,42.8c-10.3,9.5-25.2,14.3-44.6,14.3c-10.1,0-19.5-1.1-28.3-3.4
		c-8.8-2.3-16.3-5.6-22.5-10l13-25.1c4.2,3.4,9.4,6.1,15.8,8c6.4,2,12.6,2.9,18.8,2.9c9.5,0,16.4-2.1,20.8-6.2
		c4.4-4.2,6.6-10.3,6.6-18.5v-3.4c-6.9,8.1-17.1,12.1-30.4,12.1c-9.1,0-17.5-2-25.1-6.1c-7.7-4.1-13.8-9.9-18.3-17.4
		c-4.5-7.5-6.8-16.2-6.8-26c0-9.7,2.3-18.3,6.8-25.8c4.5-7.5,10.6-13.3,18.3-17.4c7.7-4.1,16.1-6.1,25.1-6.1
		c14.6,0,25.3,4.7,32.1,14.2V53.6H457z M415.1,116.4c4.2-3.9,6.3-8.9,6.3-15.1c0-6.2-2.1-11.2-6.2-15c-4.2-3.8-9.5-5.8-16.1-5.8
		c-6.6,0-11.9,1.9-16.2,5.8c-4.2,3.8-6.3,8.9-6.3,15c0,6.2,2.1,11.2,6.4,15.1c4.3,3.9,9.6,5.9,16.1,5.9
		C405.6,122.2,410.9,120.3,415.1,116.4z"/>
	<path d="M524.8,55.4c5.9-2.3,12.6-3.5,20.1-3.5v32.3c-3.3-0.4-6-0.6-8.1-0.6c-7.7,0-13.7,2.1-18,6.2c-4.3,4.2-6.5,10.5-6.5,19.1
		v47.1h-35.9V53.6h34.2v12.3C514.1,61.2,518.9,57.7,524.8,55.4z"/>
	<path d="M637.7,63.5c8.9,7.7,13.4,19.6,13.4,35.6v56.9h-33.5v-13.2c-5.2,10-15.2,14.9-30.2,14.9c-7.9,0-14.8-1.4-20.6-4.2
		c-5.8-2.8-10.2-6.5-13.1-11.2c-3-4.7-4.4-10.1-4.4-16.2c0-9.7,3.7-17.2,11.2-22.6c7.4-5.4,18.9-8,34.4-8h20.4
		c-0.6-10.8-7.9-16.3-21.7-16.3c-4.9,0-9.9,0.8-14.9,2.4c-5,1.6-9.3,3.8-12.9,6.5l-12.1-24.4c5.7-3.8,12.6-6.7,20.7-8.8
		s16.3-3.1,24.5-3.1C615.8,51.9,628.7,55.8,637.7,63.5z M608.4,132c3.1-2,5.4-5,6.8-8.9v-8.9h-15.5c-10.5,0-15.7,3.5-15.7,10.4
		c0,3.2,1.2,5.7,3.6,7.6c2.4,1.9,5.7,2.8,9.8,2.8C601.6,135.1,605.2,134.1,608.4,132z"/>
	<path d="M833.6,63.3c7.5,7.6,11.2,19,11.2,34.2v58.6h-35.9v-52.7c0-7.2-1.4-12.5-4.1-15.9c-2.7-3.4-6.5-5.1-11.4-5.1
		c-5.4,0-9.8,1.9-13,5.7c-3.3,3.8-4.9,9.5-4.9,17.2v50.8h-35.9v-52.7c0-14-5.2-21-15.5-21c-5.5,0-10,1.9-13.2,5.7
		c-3.3,3.8-4.9,9.5-4.9,17.2v50.8H670V53.6h34.2v10.8c3.8-4.2,8.3-7.3,13.5-9.4c5.2-2.1,10.9-3.1,17.1-3.1c7.2,0,13.6,1.3,19.3,4
		c5.7,2.6,10.3,6.7,13.8,12.1c4-5.2,9.1-9.1,15.3-11.9c6.2-2.8,12.9-4.2,20.2-4.2C816,51.9,826.1,55.7,833.6,63.3z"/>
</g>
</svg>
