<?xml version="1.0" encoding="utf-8"?>
<!-- Generator: Adobe Illustrator 25.4.1, SVG Export Plug-In . SVG Version: 6.00 Build 0)  -->
<svg version="1.1" id="Layer_1" xmlns="http://www.w3.org/2000/svg" xmlns:xlink="http://www.w3.org/1999/xlink" x="0px" y="0px"
	 viewBox="0 0 297.64 251" style="enable-background:new 0 0 297.64 251;" xml:space="preserve">
<style type="text/css">
	.st0{fill:none;stroke:#646464;stroke-width:18;stroke-miterlimit:10;}
</style>
<path class="st0" d="M265.75,69.42c-2.22,2.12-4.59,4.07-7.09,5.85c0.01,0.57,0.01,1.13,0.01,1.7
	c-0.02,87.96-71.34,159.25-159.3,159.24c-29.2-0.01-57.83-8.04-82.78-23.22c-0.13-0.08-0.17-0.25-0.09-0.37
	c0.05-0.07,0.13-0.12,0.21-0.13c25.42-1.77,50.04-9.65,71.76-22.97C32.42,155.79,6.36,88.34,25.17,25.67
	c0.28-0.97,1.3-1.52,2.27-1.24c0.37,0.11,0.7,0.33,0.93,0.64c26.48,35.02,67.6,55.9,111.5,56.61c-0.09-1.31-0.13-2.62-0.13-3.95
	c-0.02-17.31,7.07-33.87,19.61-45.79c1.1-1.04,2.22-2.06,3.39-3.01v-0.01c11.33-9.37,25.57-14.49,40.28-14.46
	c3.08,0,6.16,0.22,9.2,0.67c12.07,1.75,23.37,6.98,32.53,15.04c2.32,0.35,4.65,0.56,6.99,0.63c0.05,0.01,0.09,0.01,0.14,0.01
	c0.69,0.02,1.37,0.04,2.07,0.04c11.01,0.02,21.84-2.85,31.39-8.33C285.68,40.2,278.57,57.22,265.75,69.42z"/>
</svg>
