<?xml version="1.0" encoding="utf-8"?>
<!-- Generator: Adobe Illustrator 19.0.0, SVG Export Plug-In . SVG Version: 6.00 Build 0)  -->
<svg version="1.1" id="Layer_1" xmlns="http://www.w3.org/2000/svg" xmlns:xlink="http://www.w3.org/1999/xlink" x="0px" y="0px"
	 viewBox="-239 329.1 132 134.4" style="enable-background:new -239 329.1 132 134.4;" xml:space="preserve">
<style type="text/css">
	.st0{fill:#FFFFFF;}
</style>
<g>
	<path class="st0" d="M-183.4,386.9h2c0.8,0,1.3-0.5,1.5-1.6l3.4-20.5c0.1-0.5,0-1-0.2-1.2c-0.2-0.2-0.5-0.3-0.8-0.3h-2
		c-1,0-1.4,0.9-1.5,1.6l-3.4,20.4c-0.1,0.6,0,1,0.2,1.3C-184,386.8-183.8,386.9-183.4,386.9z"/>
	<polygon class="st0" points="-138.4,366.4 -142.8,380.4 -138.7,380.4 	"/>
	<path class="st0" d="M-163.4,405.2h-2c-1,0-1.4,0.9-1.5,1.6l-3.4,20.5c-0.1,0.6,0,1,0.2,1.3c0.2,0.2,0.4,0.3,0.8,0.3h2
		c0.8,0,1.3-0.5,1.5-1.6l3.4-20.5c0.1-0.6,0-1-0.2-1.3C-162.8,405.3-163.1,405.2-163.4,405.2z"/>
	<path class="st0" d="M-183,405.4h-3l-1.4,8.6h3c1.1,0,1.4-0.9,1.5-1.6l0.9-5.4c0.1-0.6,0.1-1.1-0.2-1.3
		C-182.4,405.5-182.6,405.4-183,405.4z"/>
	<path class="st0" d="M-230,339v115.1h113.9c0,0,0.1,0,0.1-0.1V338.9L-230,339C-229.9,338.9-230,338.9-230,339z M-176.5,405.6
		l-1.4,8.2c-0.3,1.5-1.3,2.7-2.5,3.2c1.1,0.5,1.6,1.7,1.4,3.2l-1.4,8.2c-0.7,4.3-3,6.6-6.4,6.6h-8.5c-0.2,0-0.4-0.1-0.5-0.2
		c-0.1-0.2-0.2-0.4,0.1-0.8l5.6-34c0.1-0.6,0.4-0.9,0.9-0.9h8.5c1.5,0,2.7,0.4,3.4,1.3C-176.4,401.5-176.1,403.2-176.5,405.6z
		 M-167.5,435h-3.9c-1.5,0-2.6-0.5-3.5-1.3c-0.9-1.2-1.2-2.9-0.8-5.3l3.8-22.7c0.7-4.3,2.9-6.6,6.3-6.6h4c1.5,0,2.7,0.4,3.4,1.3
		c0.9,1.2,1.2,2.9,0.8,5.3l-3.8,22.7C-161.9,432.7-164.1,435-167.5,435z M-135.6,400.6l-8.1,16.2l2.7,17c0.1,0.4,0,0.8-0.2,1
		c-0.1,0.1-0.3,0.3-0.7,0.3h-3.6c-0.5,0-0.8-0.3-0.9-0.8l-1.5-10.2l-4.9,10.2c-0.2,0.5-0.6,0.7-1.1,0.7h-3.6c-0.4,0-0.5-0.2-0.6-0.3
		c-0.2-0.2-0.1-0.6,0.1-1l8.4-17l-2.6-16.1c-0.1-0.4,0-0.8,0.2-1c0.1-0.1,0.3-0.3,0.7-0.3h3.5c0.5,0,0.8,0.3,0.9,0.8l1.4,9.9l4.8-10
		c0.2-0.5,0.6-0.7,1.1-0.7h3.5c0.4,0,0.5,0.2,0.6,0.3C-135.3,399.8-135.4,400.2-135.6,400.6z M-139.3,357.2h4.9
		c0.3,0,0.7,0.1,0.7,0.8l0.2,34.1c0,0.3-0.1,0.5-0.3,0.7c-0.2,0.1-0.4,0.2-0.6,0.2h-3.7c-0.3,0-0.6-0.2-0.6-0.8l0.1-6.3h-6l-2,6.3
		c-0.3,0.7-0.6,0.8-0.9,0.8h-3.8c-0.3,0-0.4-0.1-0.5-0.2c-0.1-0.2-0.1-0.5,0-0.8l11.6-34C-140,357.3-139.6,357.2-139.3,357.2z
		 M-170.4,386.6l3.8-22.7c0.8-4.3,3-6.6,6.4-6.6h4.7c1.5,0,2.7,0.4,3.4,1.3c0.9,1.1,1.2,2.8,0.8,5.2l-0.8,4.6
		c-0.1,0.6-0.4,0.9-0.9,0.9h-3.5c-0.2,0-0.4-0.1-0.5-0.2c-0.1-0.2-0.2-0.4-0.1-0.7l0.6-3.4c0.1-0.6,0-1-0.2-1.3
		c-0.2-0.2-0.5-0.3-0.8-0.3h-2.5c-0.8,0-1.3,0.5-1.5,1.6l-3.5,20.1c-0.1,0.6,0,1,0.2,1.3c0.2,0.2,0.4,0.3,0.8,0.3h2.6
		c0.8,0,1.3-0.5,1.5-1.6l1-5.7h-1.6c-0.2,0-0.4-0.1-0.5-0.2c-0.1-0.2-0.2-0.4-0.1-0.7l0.7-4.4c0.1-0.6,0.4-0.9,0.9-0.9h5.9
		c0.2,0,0.4,0.1,0.5,0.2c0.1,0.2,0.2,0.4,0.1,0.7l-2.1,12.3c-0.7,4.3-2.9,6.6-6.3,6.6h-4.7c-1.5,0-2.6-0.5-3.5-1.2
		C-170.5,390.7-170.8,389-170.4,386.6z M-179.6,357.1h4c1.5,0,2.7,0.4,3.4,1.3c0.9,1.2,1.2,2.9,0.8,5.3l-3.8,22.7
		c-0.7,4.3-2.9,6.6-6.3,6.6h-4c-1.5,0-2.6-0.5-3.4-1.4c-0.9-1.1-1.2-2.8-0.8-5.2l3.8-22.7C-185.2,359.4-183,357.1-179.6,357.1z
		 M-206.1,357.4c0.1-0.2,0.4-0.3,0.7-0.3h3.5c0.5,0,0.8,0.3,0.9,0.9l1.8,12.1l5.8-12.2c0.2-0.5,0.6-0.8,1.1-0.8h3.5
		c0.3,0,0.5,0.1,0.6,0.3c0.1,0.2,0.2,0.5-0.1,1l-9.7,19.7l-2.3,13.7c-0.2,0.7-0.5,1.1-1.1,1.1h-3.4c-0.3,0-0.5,0-0.6-0.2
		c-0.1-0.1-0.2-0.4-0.1-0.8l2.3-13.8l-3.1-19.8C-206.4,358-206.3,357.6-206.1,357.4z M-212.4,420l5.3-20.4c0,0,0-0.5,0.5-0.5
		c2,0,9.1,0,9.1,0c0.3,0,0.6,0.1,0.7,0.3c0.1,0.1,0.2,0.4,0,0.9l-6.7,14.2l3.9-0.3c0,0,0.2,0,0.2,0.1c0.1,0.1,0,0.2,0,0.2
		s-9.8,20.1-10.4,20.7c-0.1,0.1-0.2,0.1-0.3,0.1c-0.1,0-0.2-0.1-0.2-0.1c-0.2-0.2-0.1-0.5-0.1-0.8l2.2-13.4l0.1-0.8l-4.1,0.3
		c0,0-0.1,0-0.2-0.1C-212.5,420.2-212.4,420-212.4,420z"/>
	<path class="st0" d="M-239,329.1v134.4h132V329.1H-239z M-108.4,332.4v128.2c0,1-0.8,1.8-1.8,1.8h-125.6c-0.5,0-0.9-0.2-1.3-0.6
		c-0.4-0.3-0.6-0.8-0.6-1.3V332.3c0-1,0.8-1.8,1.8-1.8h125.7c0.5,0,0.9,0.2,1.3,0.6C-108.5,331.5-108.3,332-108.4,332.4z"/>
	<path class="st0" d="M-185.4,420.2h-3l-1.4,8.6h3c0.8,0,1.3-0.5,1.5-1.6l0.9-5.4c0.1-0.6,0-1.1-0.2-1.3
		C-184.8,420.3-185,420.2-185.4,420.2z"/>
</g>
</svg>
