<?xml version="1.0" encoding="utf-8"?>
<!-- Generator: Adobe Illustrator 25.3.1, SVG Export Plug-In . SVG Version: 6.00 Build 0)  -->
<!DOCTYPE svg PUBLIC "-//W3C//DTD SVG 1.0//EN" "http://www.w3.org/TR/2001/REC-SVG-20010904/DTD/svg10.dtd" [
	<!ENTITY ns_extend "http://ns.adobe.com/Extensibility/1.0/">
	<!ENTITY ns_ai "http://ns.adobe.com/AdobeIllustrator/10.0/">
	<!ENTITY ns_graphs "http://ns.adobe.com/Graphs/1.0/">
	<!ENTITY ns_vars "http://ns.adobe.com/Variables/1.0/">
	<!ENTITY ns_imrep "http://ns.adobe.com/ImageReplacement/1.0/">
	<!ENTITY ns_sfw "http://ns.adobe.com/SaveForWeb/1.0/">
	<!ENTITY ns_custom "http://ns.adobe.com/GenericCustomNamespace/1.0/">
	<!ENTITY ns_adobe_xpath "http://ns.adobe.com/XPath/1.0/">
]>
<svg version="1.0" id="Layer_1" xmlns:x="&ns_extend;" xmlns:i="&ns_ai;" xmlns:graph="&ns_graphs;"
	 xmlns="http://www.w3.org/2000/svg" xmlns:xlink="http://www.w3.org/1999/xlink" x="0px" y="0px" viewBox="0 0 444 331"
	 enable-background="new 0 0 444 331" xml:space="preserve">
<metadata>
	<sfw  xmlns="&ns_sfw;">
		<slices></slices>
		<sliceSourceBounds  bottomLeftOrigin="true" height="313.2" width="426" x="9" y="-322.1"></sliceSourceBounds>
	</sfw>
</metadata>
<path fill-rule="evenodd" clip-rule="evenodd" fill="#FFFFFF" d="M54.2,276.1l20.6-111L9,8.9h105.4l11.6,35.1
	c2.4,7.5,4.4,14.3,5.9,20.3c1.4,6,2.6,11.8,3.4,17.4c2.5-8.8,8.1-20,16.6-33.4c0.7-1.1,1.3-1.9,1.7-2.4l23.5-37.1h115.9l-28.5,37.2
	l0,0L146.1,189.9h56.7L166,276.1h-13.9h-8.8H54.2L54.2,276.1z M260.8,54.9l-37.1,86.5h56.7L162.3,284.9l0,0l0,0l-30.7,37.2h181.8
	c36,0,64.4-7.4,85-22.2c20.6-14.7,31-35,31-60.4c0-14.5-4.6-26.6-13.8-36.3c-9.2-9.7-21.8-15.8-37.9-18.3
	c18.6-1.9,32.8-7.8,42.5-17.6c9.8-9.8,14.7-23,14.7-39.6c0-23.9-9.6-42-28.7-54.3c-19.2-12.4-47.2-18.6-84.2-18.6H260.8L260.8,54.9z
	 M284.7,257.1h6.7c16.2,0,27.5-1.7,33.8-5.1c6.4-3.4,9.6-9.2,9.6-17.3c0-6.3-2.2-11-6.7-13.9c-4.4-3-11.5-4.5-21.1-4.5h-14.9
	L284.7,257.1L284.7,257.1z M303.8,153.9l6.4-34h12.6c6.8,0,12.1,1.4,16,4.2c3.8,2.8,5.7,6.7,5.7,11.5c0,6.3-2.9,11-8.7,14
	c-5.8,2.9-14.9,4.4-27.4,4.4H303.8z"/>
</svg>
