<?xml version="1.0" encoding="utf-8"?>
<!-- Generator: Adobe Illustrator 25.3.1, SVG Export Plug-In . SVG Version: 6.00 Build 0)  -->
<!DOCTYPE svg PUBLIC "-//W3C//DTD SVG 1.0//EN" "http://www.w3.org/TR/2001/REC-SVG-20010904/DTD/svg10.dtd" [
	<!ENTITY ns_extend "http://ns.adobe.com/Extensibility/1.0/">
	<!ENTITY ns_ai "http://ns.adobe.com/AdobeIllustrator/10.0/">
	<!ENTITY ns_graphs "http://ns.adobe.com/Graphs/1.0/">
	<!ENTITY ns_vars "http://ns.adobe.com/Variables/1.0/">
	<!ENTITY ns_imrep "http://ns.adobe.com/ImageReplacement/1.0/">
	<!ENTITY ns_sfw "http://ns.adobe.com/SaveForWeb/1.0/">
	<!ENTITY ns_custom "http://ns.adobe.com/GenericCustomNamespace/1.0/">
	<!ENTITY ns_adobe_xpath "http://ns.adobe.com/XPath/1.0/">
]>
<svg version="1.0" xmlns:x="&ns_extend;" xmlns:i="&ns_ai;" xmlns:graph="&ns_graphs;"
	 xmlns="http://www.w3.org/2000/svg" xmlns:xlink="http://www.w3.org/1999/xlink" x="0px" y="0px" viewBox="0 0 602.8 109.2"
	 enable-background="new 0 0 602.8 109.2" xml:space="preserve">
<metadata>
	<sfw  xmlns="&ns_sfw;">
		<slices></slices>
		<sliceSourceBounds  bottomLeftOrigin="true" height="1000" width="1000" x="0" y="-1000"></sliceSourceBounds>
	</sfw>
</metadata>
<g id="Layer_2" display="none">
	
		<rect display="inline" fill-rule="evenodd" clip-rule="evenodd" stroke="#000000" stroke-width="1.190000e-02" stroke-miterlimit="2.6131" width="1000" height="1000"/>
</g>
<g id="White" display="none">
	<g display="inline">
		<path fill-rule="evenodd" clip-rule="evenodd" fill="#FFFFFF" d="M690.7,542.5l38-45.4l-20-39.6h34.5l3.7,8.2
			c0.7,1.7,1.3,3.3,1.9,5c0.6,1.7,1.1,3.4,1.6,5.1c0.4-1.3,1-2.6,1.8-4c0.8-1.4,1.8-2.9,3.1-4.7l6.9-9.6H800l-35.4,43l20.9,42H751
			l-4.9-11c-0.6-1.4-1.1-2.8-1.6-4.2c-0.4-1.4-0.8-2.8-1.1-4.1c-1.2,2.2-2.4,4.1-3.4,5.7c-1,1.6-1.7,2.7-2.2,3.3l-8.1,10.3H690.7
			L690.7,542.5z M555.5,457.5h24.9c11.8,0,20.7,2,26.8,5.9c6.1,3.9,9.1,9.7,9.1,17.3c0,5.3-1.6,9.5-4.7,12.6
			c-3.1,3.1-7.6,5-13.5,5.6c5.1,0.8,9.1,2.7,12,5.8c2.9,3.1,4.4,6.9,4.4,11.6c0,8.1-3.3,14.5-9.8,19.2c-6.6,4.7-15.6,7.1-27,7.1
			h-21.1h-5.1c-15.9,0.1-29.8,4.2-37.5,12.1l10-12.1l44-53.5h-25.9L555.5,457.5L555.5,457.5z M568.4,521.8h2.1
			c5.2,0,8.7-0.5,10.8-1.6c2-1.1,3.1-2.9,3.1-5.5c0-2-0.7-3.5-2.1-4.4c-1.4-1-3.6-1.4-6.7-1.4h-4.8L568.4,521.8L568.4,521.8z
			 M574.5,489h1.5c4,0,6.9-0.5,8.7-1.4c1.8-0.9,2.8-2.4,2.8-4.4c0-1.5-0.6-2.8-1.8-3.7c-1.2-0.9-2.9-1.3-5.1-1.3h-4L574.5,489
			L574.5,489z M659.2,544.8c7.7,0,14.8-1.4,21.2-4.2c6.4-2.8,12-7,16.6-12.4c3.8-4.4,6.7-9.4,8.7-14.9c2-5.6,3-11.5,3-17.9
			c0-11.8-4-21.4-11.9-28.8c-7.9-7.4-18.3-11.1-31-11.1c-7.5,0-14.6,1.4-21.1,4.3c-6.5,2.9-12,7-16.6,12.3c-3.9,4.5-6.8,9.5-8.7,15
			c-2,5.5-2.9,11.4-2.9,17.8c0,5.9,1.1,11.4,3.4,16.7c2.3,5.2,5.5,9.6,9.6,13.2c3.9,3.3,8.3,5.8,13.3,7.5
			C647.5,543.9,653.1,544.8,659.2,544.8L659.2,544.8z M663.8,483.8c4.1,0,7.5,1.3,10.1,4c2.7,2.7,4,6.1,4,10.4c0,5.2-1.6,9.5-4.9,13
			c-3.3,3.5-7.3,5.3-12,5.3c-4.3,0-7.7-1.3-10.3-4c-2.6-2.7-3.9-6.2-3.9-10.7c0-5.1,1.6-9.4,4.8-12.8
			C655,485.5,659,483.8,663.8,483.8z"/>
		<path fill-rule="evenodd" clip-rule="evenodd" fill="#FFFFFF" d="M490.7,511.1h10.8l-0.3-9.1c0-0.5-0.1-1.2-0.1-2.2
			c-0.2-3.8-0.3-6.9-0.3-9.2c0-1.5,0-2.7,0-3.6c0-0.8,0-1.6,0.1-2.4c-0.7,2.3-1.4,4.5-2.1,6.6c-0.7,2.1-1.4,4-2.1,5.7L490.7,511.1
			L490.7,511.1z M214.4,542.5l6.6-35.3L200,457.5h33.5l3.7,11.2c0.8,2.4,1.4,4.6,1.9,6.5c0.5,1.9,0.8,3.8,1.1,5.5
			c0.8-2.8,2.6-6.4,5.3-10.6c0.2-0.4,0.4-0.6,0.5-0.8l7.5-11.8h36.9L252,507.7l-6.4,34.8H214.4L214.4,542.5z M315.1,544.8
			c7.7,0,14.8-1.4,21.2-4.2c6.4-2.8,12-7,16.6-12.4c3.8-4.4,6.7-9.4,8.7-14.9c2-5.6,3-11.5,3-17.9c0-11.8-4-21.4-11.9-28.8
			c-7.9-7.4-18.3-11.1-31-11.1c-7.5,0-14.6,1.4-21.1,4.3c-6.5,2.9-12,7-16.6,12.3c-3.9,4.5-6.8,9.5-8.7,15c-2,5.5-2.9,11.4-2.9,17.8
			c0,5.9,1.1,11.4,3.4,16.7c2.3,5.2,5.5,9.6,9.6,13.2c3.9,3.3,8.3,5.8,13.3,7.5C303.4,543.9,309,544.8,315.1,544.8L315.1,544.8z
			 M319.7,483.8c4.1,0,7.5,1.3,10.1,4c2.7,2.7,4,6.1,4,10.4c0,5.2-1.6,9.5-4.9,13c-3.3,3.5-7.3,5.3-12,5.3c-4.3,0-7.7-1.3-10.3-4
			c-2.6-2.7-3.9-6.2-3.9-10.7c0-5.1,1.6-9.4,4.8-12.8C310.9,485.5,314.9,483.8,319.7,483.8L319.7,483.8z M446.8,532.6
			c-5.9,4.1-11.8,7.1-17.8,9.1c-6,2-12.1,3-18.4,3c-12.7,0-23-3.7-30.9-11c-7.9-7.4-11.8-16.9-11.8-28.8c0-6.3,1-12.3,2.9-17.8
			c2-5.5,4.9-10.5,8.7-15c4.5-5.4,10-9.5,16.5-12.3c6.5-2.8,13.7-4.2,21.4-4.2c9,0,16.7,1.8,23.2,5.5c6.4,3.6,11.6,9.1,15.3,16.3
			l-27.6,10.2c-1.5-2-3.2-3.5-5.1-4.5c-1.9-1-4.1-1.4-6.7-1.4c-5.4,0-9.8,2-13.2,5.9c-3.4,4-5.1,9.1-5.1,15.4
			c0,5.2,1.5,9.4,4.6,12.6c3.1,3.2,7.2,4.8,12.3,4.8c0.7,0,1.4,0,2.2-0.1c0.7-0.1,1.5-0.2,2.2-0.3l1.6-8.3h-11l3.5-19.3h40.4
			L446.8,532.6L446.8,532.6z M560.7,445.4l-10,12.1l-44.2,53.6h25.9L519,542.5h-15.8l-0.6-11.3h-20.4l-4.6,11.3h-33.2l44.4-85h33.6
			C538.6,457.5,552.8,453.4,560.7,445.4z"/>
	</g>
</g>
<g id="Black">
	<g>
		<path fill-rule="evenodd" clip-rule="evenodd" fill="#FFBC6A" d="M493.6,97.1l38-45.4l-20-39.6h34.5l3.7,8.2
			c0.7,1.7,1.3,3.3,1.9,5c0.6,1.7,1.1,3.4,1.6,5.1c0.4-1.3,1-2.6,1.8-4c0.8-1.4,1.8-2.9,3.1-4.7l6.9-9.6h37.7l-35.4,43l20.9,42
			h-34.5l-4.9-11c-0.6-1.4-1.1-2.8-1.6-4.2c-0.4-1.4-0.8-2.8-1.1-4.1c-1.2,2.2-2.4,4.1-3.4,5.7c-1,1.6-1.7,2.7-2.2,3.3l-8.1,10.3
			H493.6L493.6,97.1z M358.3,12.1h24.9c11.8,0,20.7,2,26.8,5.9c6.1,3.9,9.1,9.7,9.1,17.3c0,5.3-1.6,9.5-4.7,12.6
			c-3.1,3.1-7.6,5-13.5,5.6c5.1,0.8,9.1,2.7,12,5.8c2.9,3.1,4.4,6.9,4.4,11.6c0,8.1-3.3,14.5-9.8,19.2c-6.6,4.7-15.6,7.1-27,7.1
			h-21.1h-5.1c-15.9,0.1-29.8,4.2-37.5,12.1l10-12.1l44-53.5h-25.9L358.3,12.1L358.3,12.1z M371.3,76.4h2.1c5.2,0,8.7-0.5,10.8-1.6
			c2-1.1,3.1-2.9,3.1-5.5c0-2-0.7-3.5-2.1-4.4c-1.4-1-3.6-1.4-6.7-1.4h-4.8L371.3,76.4L371.3,76.4z M377.4,43.6h1.5
			c4,0,6.9-0.5,8.7-1.4c1.8-0.9,2.8-2.4,2.8-4.4c0-1.5-0.6-2.8-1.8-3.7c-1.2-0.9-2.9-1.3-5.1-1.3h-4L377.4,43.6L377.4,43.6z
			 M462,99.3c7.7,0,14.8-1.4,21.2-4.2c6.4-2.8,12-7,16.6-12.4c3.8-4.4,6.7-9.4,8.7-14.9c2-5.6,3-11.5,3-17.9
			c0-11.8-4-21.4-11.9-28.8c-7.9-7.4-18.3-11.1-31-11.1c-7.5,0-14.6,1.4-21.1,4.3c-6.5,2.9-12,7-16.6,12.3c-3.9,4.5-6.8,9.5-8.7,15
			c-2,5.5-2.9,11.4-2.9,17.8c0,5.9,1.1,11.4,3.4,16.7c2.3,5.2,5.5,9.6,9.6,13.2c3.9,3.3,8.3,5.8,13.3,7.5
			C450.4,98.5,455.9,99.3,462,99.3L462,99.3z M466.7,38.4c4.1,0,7.5,1.3,10.1,4c2.7,2.7,4,6.1,4,10.4c0,5.2-1.6,9.5-4.9,13
			c-3.3,3.5-7.3,5.3-12,5.3c-4.3,0-7.7-1.3-10.3-4c-2.6-2.7-3.9-6.2-3.9-10.7c0-5.1,1.6-9.4,4.8-12.8
			C457.8,40.1,461.8,38.4,466.7,38.4z"/>
		<path fill-rule="evenodd" clip-rule="evenodd" fill="#FFBC6A" d="M293.5,65.7h10.8l-0.3-9.1c0-0.5-0.1-1.2-0.1-2.2
			c-0.2-3.8-0.3-6.9-0.3-9.2c0-1.5,0-2.7,0-3.6c0-0.8,0-1.6,0.1-2.4c-0.7,2.3-1.4,4.5-2.1,6.6c-0.7,2.1-1.4,4-2.1,5.7L293.5,65.7
			L293.5,65.7z M17.2,97.1l6.6-35.3L2.8,12.1h33.5l3.7,11.2c0.8,2.4,1.4,4.6,1.9,6.5c0.5,1.9,0.8,3.8,1.1,5.5
			c0.8-2.8,2.6-6.4,5.3-10.6c0.2-0.4,0.4-0.6,0.5-0.8l7.5-11.8h36.9L54.8,62.3l-6.4,34.8H17.2L17.2,97.1z M117.9,99.3
			c7.7,0,14.8-1.4,21.2-4.2c6.4-2.8,12-7,16.6-12.4c3.8-4.4,6.7-9.4,8.7-14.9c2-5.6,3-11.5,3-17.9c0-11.8-4-21.4-11.9-28.8
			c-7.9-7.4-18.3-11.1-31-11.1c-7.6,0-14.6,1.4-21.1,4.3c-6.5,2.9-12,7-16.6,12.3c-3.9,4.5-6.8,9.5-8.7,15c-2,5.5-2.9,11.4-2.9,17.8
			c0,5.9,1.1,11.4,3.4,16.7c2.3,5.2,5.5,9.6,9.6,13.2c3.9,3.3,8.3,5.8,13.3,7.5C106.3,98.5,111.8,99.3,117.9,99.3L117.9,99.3z
			 M122.6,38.4c4.1,0,7.5,1.3,10.1,4c2.7,2.7,4,6.1,4,10.4c0,5.2-1.6,9.5-4.9,13c-3.3,3.5-7.3,5.3-12,5.3c-4.3,0-7.7-1.3-10.3-4
			c-2.6-2.7-3.9-6.2-3.9-10.7c0-5.1,1.6-9.4,4.8-12.8C113.7,40.1,117.7,38.4,122.6,38.4L122.6,38.4z M249.7,87.2
			c-5.9,4.1-11.8,7.1-17.8,9.1c-6,2-12.1,3-18.4,3c-12.7,0-23-3.7-30.9-11c-7.9-7.4-11.8-16.9-11.8-28.8c0-6.3,1-12.3,2.9-17.8
			c2-5.5,4.9-10.5,8.7-15c4.5-5.4,10-9.5,16.5-12.3c6.5-2.8,13.7-4.2,21.4-4.2c9,0,16.7,1.8,23.2,5.5c6.4,3.6,11.6,9.1,15.3,16.3
			l-27.6,10.2c-1.5-2-3.2-3.5-5.1-4.5c-1.9-1-4.1-1.4-6.7-1.4c-5.4,0-9.8,2-13.2,5.9c-3.4,4-5.1,9.1-5.1,15.4
			c0,5.2,1.5,9.4,4.6,12.6c3.1,3.2,7.2,4.8,12.3,4.8c0.7,0,1.4,0,2.2-0.1c0.7-0.1,1.5-0.2,2.2-0.3l1.6-8.3h-11l3.5-19.3H257
			L249.7,87.2L249.7,87.2z M363.5,0l-10,12.1l-44.2,53.6h25.9l-13.4,31.4h-15.8l-0.6-11.3h-20.4l-4.6,11.3h-33.2l44.4-85h33.6
			C341.5,12.1,355.7,8,363.5,0z"/>
	</g>
</g>
</svg>
