<?xml version="1.0" encoding="utf-8"?>
<!-- Generator: Adobe Illustrator 19.0.0, SVG Export Plug-In . SVG Version: 6.00 Build 0)  -->
<svg version="1.1" id="Layer_1" xmlns="http://www.w3.org/2000/svg" xmlns:xlink="http://www.w3.org/1999/xlink" x="0px" y="0px"
	 viewBox="-231 353.5 132 134.4" style="enable-background:new -231 353.5 132 134.4;" xml:space="preserve">
<style type="text/css">
	.st0{fill:#FFFFFF;}
</style>
<g>
	<path class="st0" d="M-175.4,411.3h2c0.8,0,1.3-0.5,1.5-1.6l3.4-20.5c0.1-0.5,0-1-0.2-1.2s-0.5-0.3-0.8-0.3h-2
		c-1,0-1.4,0.9-1.5,1.6l-3.4,20.4c-0.1,0.6,0,1,0.2,1.3C-176,411.2-175.8,411.3-175.4,411.3z"/>
	<polygon class="st0" points="-130.4,390.8 -134.8,404.8 -130.7,404.8 	"/>
	<path class="st0" d="M-155.4,429.6h-2c-1,0-1.4,0.9-1.5,1.6l-3.4,20.5c-0.1,0.6,0,1,0.2,1.3c0.2,0.2,0.4,0.3,0.8,0.3h2
		c0.8,0,1.3-0.5,1.5-1.6l3.4-20.5c0.1-0.6,0-1-0.2-1.3C-154.8,429.7-155.1,429.6-155.4,429.6z"/>
	<path class="st0" d="M-175,429.8h-3l-1.4,8.6h3c1.1,0,1.4-0.9,1.5-1.6l0.9-5.4c0.1-0.6,0.1-1.1-0.2-1.3
		C-174.4,429.9-174.6,429.8-175,429.8z"/>
	<path class="st0" d="M-222,363.4v115.1h113.9c0,0,0.1,0,0.1-0.1V363.3L-222,363.4C-221.9,363.3-222,363.3-222,363.4z M-168.5,430
		l-1.4,8.2c-0.3,1.5-1.3,2.7-2.5,3.2c1.1,0.5,1.6,1.7,1.4,3.2l-1.4,8.2c-0.7,4.3-3,6.6-6.4,6.6h-8.5c-0.2,0-0.4-0.1-0.5-0.2
		c-0.1-0.2-0.2-0.4,0.1-0.8l5.6-34c0.1-0.6,0.4-0.9,0.9-0.9h8.5c1.5,0,2.7,0.4,3.4,1.3C-168.4,425.9-168.1,427.6-168.5,430z
		 M-159.5,459.4h-3.9c-1.5,0-2.6-0.5-3.5-1.3c-0.9-1.2-1.2-2.9-0.8-5.3l3.8-22.7c0.7-4.3,2.9-6.6,6.3-6.6h4c1.5,0,2.7,0.4,3.4,1.3
		c0.9,1.2,1.2,2.9,0.8,5.3l-3.8,22.7C-153.9,457.1-156.1,459.4-159.5,459.4z M-127.6,425l-8.1,16.2l2.7,17c0.1,0.4,0,0.8-0.2,1
		c-0.1,0.1-0.3,0.3-0.7,0.3h-3.6c-0.5,0-0.8-0.3-0.9-0.8l-1.5-10.2l-4.9,10.2c-0.2,0.5-0.6,0.7-1.1,0.7h-3.6c-0.4,0-0.5-0.2-0.6-0.3
		c-0.2-0.2-0.1-0.6,0.1-1l8.4-17l-2.6-16.1c-0.1-0.4,0-0.8,0.2-1c0.1-0.1,0.3-0.3,0.7-0.3h3.5c0.5,0,0.8,0.3,0.9,0.8l1.4,9.9l4.8-10
		c0.2-0.5,0.6-0.7,1.1-0.7h3.5c0.4,0,0.5,0.2,0.6,0.3C-127.3,424.2-127.4,424.6-127.6,425z M-131.3,381.6h4.9c0.3,0,0.7,0.1,0.7,0.8
		l0.2,34.1c0,0.3-0.1,0.5-0.3,0.7c-0.2,0.1-0.4,0.2-0.6,0.2h-3.7c-0.3,0-0.6-0.2-0.6-0.8l0.1-6.3h-6l-2,6.3
		c-0.3,0.7-0.6,0.8-0.9,0.8h-3.8c-0.3,0-0.4-0.1-0.5-0.2c-0.1-0.2-0.1-0.5,0-0.8l11.6-34C-132,381.7-131.6,381.6-131.3,381.6z
		 M-162.4,411l3.8-22.7c0.8-4.3,3-6.6,6.4-6.6h4.7c1.5,0,2.7,0.4,3.4,1.3c0.9,1.1,1.2,2.8,0.8,5.2l-0.8,4.6
		c-0.1,0.6-0.4,0.9-0.9,0.9h-3.5c-0.2,0-0.4-0.1-0.5-0.2c-0.1-0.2-0.2-0.4-0.1-0.7l0.6-3.4c0.1-0.6,0-1-0.2-1.3
		c-0.2-0.2-0.5-0.3-0.8-0.3h-2.5c-0.8,0-1.3,0.5-1.5,1.6l-3.5,20.1c-0.1,0.6,0,1,0.2,1.3c0.2,0.2,0.4,0.3,0.8,0.3h2.6
		c0.8,0,1.3-0.5,1.5-1.6l1-5.7h-1.6c-0.2,0-0.4-0.1-0.5-0.2c-0.1-0.2-0.2-0.4-0.1-0.7l0.7-4.4c0.1-0.6,0.4-0.9,0.9-0.9h5.9
		c0.2,0,0.4,0.1,0.5,0.2c0.1,0.2,0.2,0.4,0.1,0.7l-2.1,12.3c-0.7,4.3-2.9,6.6-6.3,6.6h-4.7c-1.5,0-2.6-0.5-3.5-1.2
		C-162.5,415.1-162.8,413.4-162.4,411z M-171.6,381.5h4c1.5,0,2.7,0.4,3.4,1.3c0.9,1.2,1.2,2.9,0.8,5.3l-3.8,22.7
		c-0.7,4.3-2.9,6.6-6.3,6.6h-4c-1.5,0-2.6-0.5-3.4-1.4c-0.9-1.1-1.2-2.8-0.8-5.2l3.8-22.7C-177.2,383.8-175,381.5-171.6,381.5z
		 M-198.1,381.8c0.1-0.2,0.4-0.3,0.7-0.3h3.5c0.5,0,0.8,0.3,0.9,0.9l1.8,12.1l5.8-12.2c0.2-0.5,0.6-0.8,1.1-0.8h3.5
		c0.3,0,0.5,0.1,0.6,0.3c0.1,0.2,0.2,0.5-0.1,1l-9.7,19.7l-2.3,13.7c-0.2,0.7-0.5,1.1-1.1,1.1h-3.4c-0.3,0-0.5,0-0.6-0.2
		c-0.1-0.1-0.2-0.4-0.1-0.8l2.3-13.8l-3.1-19.8C-198.4,382.4-198.3,382-198.1,381.8z M-204.4,444.4l5.3-20.4c0,0,0-0.5,0.5-0.5
		c2,0,9.1,0,9.1,0c0.3,0,0.6,0.1,0.7,0.3c0.1,0.1,0.2,0.4,0,0.9l-6.7,14.2l3.9-0.3c0,0,0.2,0,0.2,0.1c0.1,0.1,0,0.2,0,0.2
		s-9.8,20.1-10.4,20.7c-0.1,0.1-0.2,0.1-0.3,0.1s-0.2-0.1-0.2-0.1c-0.2-0.2-0.1-0.5-0.1-0.8l2.2-13.4l0.1-0.8l-4.1,0.3
		c0,0-0.1,0-0.2-0.1C-204.5,444.6-204.4,444.4-204.4,444.4z"/>
	<path class="st0" d="M-177.4,444.6h-3l-1.4,8.6h3c0.8,0,1.3-0.5,1.5-1.6l0.9-5.4c0.1-0.6,0-1.1-0.2-1.3
		C-176.8,444.7-177,444.6-177.4,444.6z"/>
</g>
</svg>
